Involve-Oblique.ufo
<glyph name="parenright" format="2">
  <advance width="369"/>
  <unicode hex="0029"/>
  <outline>
    <contour>
      <point x="11" y="-125" type="line"/>
      <point x="219" y="-58"/>
      <point x="377" y="180"/>
      <point x="377" y="395" type="curve" smooth="yes"/>
      <point x="377" y="535"/>
      <point x="308" y="687"/>
      <point x="171" y="739" type="curve"/>
      <point x="159" y="674" type="line"/>
      <point x="257" y="606"/>
      <point x="301" y="498"/>
      <point x="301" y="380" type="curve" smooth="yes"/>
      <point x="301" y="201"/>
      <point x="178" y="23"/>
      <point x="23" y="-61" type="curve"/>
    </contour>
  </outline>
</glyph>
<glyph name="zero" format="2">
  <advance width="554"/>
  <unicode hex="0030"/>
  <outline>
    <contour>
      <point x="71" y="180" type="curve" smooth="yes"/>
      <point x="71" y="52"/>
      <point x="151" y="-13"/>
      <point x="281" y="-13" type="curve" smooth="yes"/>
      <point x="462" y="-13"/>
      <point x="545" y="106"/>
      <point x="575" y="269" type="curve" smooth="yes"/>
      <point x="614" y="479" type="line" smooth="yes"/>
      <point x="621" y="514"/>
      <point x="624" y="542"/>
      <point x="624" y="566" type="curve" smooth="yes"/>
      <point x="624" y="685"/>
      <point x="532" y="752"/>
      <point x="416" y="752" type="curve" smooth="yes"/>
      <point x="242" y="752"/>
      <point x="149" y="640"/>
      <point x="119" y="479" type="curve" smooth="yes"/>
      <point x="80" y="269" type="line" smooth="yes"/>
      <point x="74" y="236"/>
      <point x="71" y="206"/>
    </contour>
    <contour>
      <point x="145" y="193" type="curve" smooth="yes"/>
      <point x="145" y="217"/>
      <point x="148" y="246"/>
      <point x="155" y="281" type="curve" smooth="yes"/>
      <point x="189" y="462" type="line" smooth="yes"/>
      <point x="211" y="583"/>
      <point x="264" y="685"/>
      <point x="405" y="685" type="curve" smooth="yes"/>
      <point x="490" y="685"/>
      <point x="548" y="636"/>
      <point x="548" y="551" type="curve" smooth="yes"/>
      <point x="548" y="527"/>
      <point x="545" y="499"/>
      <point x="538" y="462" type="curve" smooth="yes"/>
      <point x="504" y="281" type="line" smooth="yes"/>
      <point x="482" y="158"/>
      <point x="435" y="54"/>
      <point x="290" y="54" type="curve" smooth="yes"/>
      <point x="198" y="54"/>
      <point x="145" y="104"/>
    </contour>
  </outline>
</glyph>
<glyph name="three" format="2">
  <advance width="554"/>
  <unicode hex="0033"/>
  <outline>
    <contour>
      <point x="76" y="231" type="line"/>
      <point x="73" y="210"/>
      <point x="71" y="193"/>
      <point x="71" y="176" type="curve" smooth="yes"/>
      <point x="71" y="61"/>
      <point x="155" y="-13"/>
      <point x="271" y="-13" type="curve" smooth="yes"/>
      <point x="420" y="-13"/>
      <point x="550" y="123"/>
      <point x="550" y="270" type="curve" smooth="yes"/>
      <point x="550" y="337"/>
      <point x="519" y="389"/>
      <point x="457" y="423" type="curve"/>
      <point x="525" y="465"/>
      <point x="564" y="525"/>
      <point x="564" y="605" type="curve" smooth="yes"/>
      <point x="564" y="693"/>
      <point x="504" y="752"/>
      <point x="408" y="752" type="curve" smooth="yes"/>
      <point x="297" y="752"/>
      <point x="211" y="676"/>
      <point x="185" y="555" type="curve"/>
      <point x="258" y="555" type="line"/>
      <point x="274" y="638"/>
      <point x="324" y="685"/>
      <point x="396" y="685" type="curve" smooth="yes"/>
      <point x="453" y="685"/>
      <point x="489" y="649"/>
      <point x="489" y="595" type="curve" smooth="yes"/>
      <point x="489" y="510"/>
      <point x="422" y="452"/>
      <point x="339" y="452" type="curve" smooth="yes"/>
      <point x="303" y="452" type="line"/>
      <point x="291" y="388" type="line"/>
      <point x="303" y="388" type="line" smooth="yes"/>
      <point x="391" y="388"/>
      <point x="474" y="367"/>
      <point x="474" y="252" type="curve" smooth="yes"/>
      <point x="474" y="149"/>
      <point x="385" y="54"/>
      <point x="280" y="54" type="curve" smooth="yes"/>
      <point x="200" y="54"/>
      <point x="146" y="109"/>
      <point x="146" y="187" type="curve" smooth="yes"/>
      <point x="146" y="200"/>
      <point x="147" y="214"/>
      <point x="149" y="231" type="curve"/>
    </contour>
  </outline>
</glyph>
<glyph name="six" format="2">
  <advance width="554"/>
  <unicode hex="0036"/>
  <outline>
    <contour>
      <point x="65" y="192" type="curve" smooth="yes"/>
      <point x="65" y="72"/>
      <point x="150" y="-13"/>
      <point x="278" y="-13" type="curve" smooth="yes"/>
      <point x="445" y="-13"/>
      <point x="580" y="137"/>
      <point x="580" y="300" type="curve" smooth="yes"/>
      <point x="580" y="417"/>
      <point x="502" y="503"/>
      <point x="386" y="503" type="curve" smooth="yes"/>
      <point x="355" y="503"/>
      <point x="332" y="498"/>
      <point x="296" y="482" type="curve"/>
      <point x="518" y="739" type="line"/>
      <point x="433" y="739" type="line"/>
      <point x="200" y="467" type="line" smooth="yes"/>
      <point x="128" y="383"/>
      <point x="65" y="308"/>
    </contour>
    <contour>
      <point x="141" y="205" type="curve" smooth="yes"/>
      <point x="141" y="321"/>
      <point x="236" y="436"/>
      <point x="357" y="436" type="curve" smooth="yes"/>
      <point x="449" y="436"/>
      <point x="505" y="378"/>
      <point x="505" y="289" type="curve" smooth="yes"/>
      <point x="505" y="171"/>
      <point x="413" y="54"/>
      <point x="289" y="54" type="curve" smooth="yes"/>
      <point x="199" y="54"/>
      <point x="141" y="116"/>
    </contour>
  </outline>
</glyph>
<glyph name="semicolon" format="2">
  <advance width="277"/>
  <unicode hex="003B"/>
  <outline>
    <component base="comma" xOffset="40"/>
    <contour>
      <point x="196" y="381" type="line"/>
      <point x="270" y="381" type="line"/>
      <point x="293" y="507" type="line"/>
      <point x="219" y="507" type="line"/>
    </contour>
  </outline>
</glyph>
<glyph name="at" format="2">
  <advance width="867"/>
  <unicode hex="0040"/>
  <outline>
    <contour>
      <point x="713" y="138" type="line"/>
      <point x="638" y="72"/>
      <point x="551" y="37"/>
      <point x="460" y="37" type="curve" smooth="yes"/>
      <point x="297" y="37"/>
      <point x="185" y="152"/>
      <point x="185" y="306" type="curve" smooth="yes"/>
      <point x="185" y="511"/>
      <point x="377" y="701"/>
      <point x="582" y="701" type="curve" smooth="yes"/>
      <point x="732" y="701"/>
      <point x="832" y="610"/>
      <point x="832" y="482" type="curve" smooth="yes"/>
      <point x="832" y="383"/>
      <point x="726" y="191"/>
      <point x="611" y="191" type="curve" smooth="yes"/>
      <point x="594" y="191"/>
      <point x="583" y="200"/>
      <point x="583" y="214" type="curve" smooth="yes"/>
      <point x="583" y="227"/>
      <point x="585" y="237"/>
      <point x="597" y="260" type="curve" smooth="yes"/>
      <point x="762" y="574" type="line"/>
      <point x="701" y="574" type="line"/>
      <point x="675" y="524" type="line"/>
      <point x="662" y="577"/>
      <point x="626" y="593"/>
      <point x="573" y="593" type="curve" smooth="yes"/>
      <point x="428" y="593"/>
      <point x="270" y="398"/>
      <point x="270" y="258" type="curve" smooth="yes"/>
      <point x="270" y="189"/>
      <point x="314" y="144"/>
      <point x="384" y="144" type="curve" smooth="yes"/>
      <point x="431" y="144"/>
      <point x="468" y="159"/>
      <point x="512" y="196" type="curve"/>
      <point x="520" y="155"/>
      <point x="543" y="139"/>
      <point x="590" y="139" type="curve" smooth="yes"/>
      <point x="749" y="139"/>
      <point x="883" y="350"/>
      <point x="883" y="493" type="curve" smooth="yes"/>
      <point x="883" y="656"/>
      <point x="745" y="752"/>
      <point x="591" y="752" type="curve" smooth="yes"/>
      <point x="353" y="752"/>
      <point x="132" y="534"/>
      <point x="132" y="295" type="curve" smooth="yes"/>
      <point x="132" y="118"/>
      <point x="261" y="-13"/>
      <point x="449" y="-13" type="curve" smooth="yes"/>
      <point x="558" y="-13"/>
      <point x="669" y="32"/>
      <point x="746" y="105" type="curve"/>
    </contour>
    <contour>
      <point x="408" y="202" type="curve" smooth="yes"/>
      <point x="367" y="202"/>
      <point x="343" y="229"/>
      <point x="343" y="271" type="curve" smooth="yes"/>
      <point x="343" y="367"/>
      <point x="458" y="539"/>
      <point x="563" y="539" type="curve" smooth="yes"/>
      <point x="604" y="539"/>
      <point x="627" y="517"/>
      <point x="627" y="480" type="curve" smooth="yes"/>
      <point x="627" y="391"/>
      <point x="503" y="202"/>
    </contour>
  </outline>
</glyph>
<glyph name="B" format="2">
  <advance width="574"/>
  <unicode hex="0042"/>
  <outline>
    <contour>
      <point x="76" y="0" type="line"/>
      <point x="259" y="0" type="line" smooth="yes"/>
      <point x="474" y="0"/>
      <point x="588" y="90"/>
      <point x="588" y="259" type="curve" smooth="yes"/>
      <point x="588" y="323"/>
      <point x="558" y="365"/>
      <point x="493" y="394" type="curve"/>
      <point x="564" y="431"/>
      <point x="608" y="505"/>
      <point x="608" y="590" type="curve" smooth="yes"/>
      <point x="608" y="692"/>
      <point x="538" y="739"/>
      <point x="386" y="739" type="curve" smooth="yes"/>
      <point x="213" y="739" type="line"/>
    </contour>
    <contour>
      <point x="162" y="67" type="line"/>
      <point x="216" y="354" type="line"/>
      <point x="304" y="354" type="line" smooth="yes"/>
      <point x="456" y="354"/>
      <point x="511" y="324"/>
      <point x="511" y="241" type="curve" smooth="yes"/>
      <point x="511" y="124"/>
      <point x="429" y="67"/>
      <point x="263" y="67" type="curve" smooth="yes"/>
    </contour>
    <contour>
      <point x="228" y="421" type="line"/>
      <point x="275" y="672" type="line"/>
      <point x="364" y="672" type="line" smooth="yes"/>
      <point x="486" y="672"/>
      <point x="531" y="646"/>
      <point x="531" y="576" type="curve" smooth="yes"/>
      <point x="531" y="469"/>
      <point x="465" y="421"/>
      <point x="318" y="421" type="curve" smooth="yes"/>
    </contour>
  </outline>
</glyph>
<glyph name="G" format="2">
  <advance width="872"/>
  <unicode hex="0047"/>
  <outline>
    <contour>
      <point x="380" y="274" type="line"/>
      <point x="793" y="274" type="line"/>
      <point x="737" y="145"/>
      <point x="592" y="55"/>
      <point x="453" y="55" type="curve" smooth="yes"/>
      <point x="292" y="55"/>
      <point x="182" y="163"/>
      <point x="182" y="311" type="curve" smooth="yes"/>
      <point x="182" y="515"/>
      <point x="368" y="684"/>
      <point x="569" y="684" type="curve" smooth="yes"/>
      <point x="683" y="684"/>
      <point x="769" y="632"/>
      <point x="803" y="542" type="curve"/>
      <point x="886" y="542" type="line"/>
      <point x="860" y="668"/>
      <point x="736" y="752"/>
      <point x="575" y="752" type="curve" smooth="yes"/>
      <point x="333" y="752"/>
      <point x="106" y="545"/>
      <point x="106" y="300" type="curve" smooth="yes"/>
      <point x="106" y="119"/>
      <point x="243" y="-13"/>
      <point x="444" y="-13" type="curve" smooth="yes"/>
      <point x="651" y="-13"/>
      <point x="845" y="140"/>
      <point x="894" y="341" type="curve"/>
      <point x="392" y="341" type="line"/>
    </contour>
  </outline>
</glyph>
<glyph name="R" format="2">
  <advance width="607"/>
  <unicode hex="0052"/>
  <outline>
    <contour>
      <point x="76" y="0" type="line"/>
      <point x="150" y="0" type="line"/>
      <point x="275" y="672" type="line"/>
      <point x="379" y="672" type="line" smooth="yes"/>
      <point x="474" y="672"/>
      <point x="599" y="667"/>
      <point x="599" y="542" type="curve" smooth="yes"/>
      <point x="599" y="353"/>
      <point x="446" y="335"/>
      <point x="304" y="335" type="curve" smooth="yes"/>
      <point x="287" y="335" type="line"/>
      <point x="474" y="0" type="line"/>
      <point x="566" y="0" type="line"/>
      <point x="410" y="276" type="line"/>
      <point x="568" y="292"/>
      <point x="675" y="395"/>
      <point x="675" y="555" type="curve" smooth="yes"/>
      <point x="675" y="721"/>
      <point x="527" y="739"/>
      <point x="396" y="739" type="curve" smooth="yes"/>
      <point x="213" y="739" type="line"/>
    </contour>
  </outline>
</glyph>
<glyph name="S" format="2">
  <advance width="498"/>
  <unicode hex="0053"/>
  <outline>
    <contour>
      <point x="60" y="207" type="line"/>
      <point x="58" y="194"/>
      <point x="58" y="182"/>
      <point x="58" y="170" type="curve" smooth="yes"/>
      <point x="58" y="58"/>
      <point x="131" y="-13"/>
      <point x="251" y="-13" type="curve" smooth="yes"/>
      <point x="392" y="-13"/>
      <point x="518" y="105"/>
      <point x="518" y="247" type="curve" smooth="yes"/>
      <point x="518" y="362"/>
      <point x="437" y="392"/>
      <point x="343" y="423" type="curve" smooth="yes"/>
      <point x="281" y="443"/>
      <point x="222" y="467"/>
      <point x="222" y="532" type="curve" smooth="yes"/>
      <point x="222" y="614"/>
      <point x="294" y="684"/>
      <point x="376" y="684" type="curve" smooth="yes"/>
      <point x="444" y="684"/>
      <point x="485" y="641"/>
      <point x="485" y="574" type="curve" smooth="yes"/>
      <point x="485" y="567"/>
      <point x="485" y="562"/>
      <point x="483" y="552" type="curve"/>
      <point x="560" y="552" type="line"/>
      <point x="563" y="564"/>
      <point x="564" y="579"/>
      <point x="564" y="591" type="curve" smooth="yes"/>
      <point x="564" y="689"/>
      <point x="497" y="752"/>
      <point x="390" y="752" type="curve" smooth="yes"/>
      <point x="260" y="752"/>
      <point x="145" y="648"/>
      <point x="145" y="516" type="curve" smooth="yes"/>
      <point x="145" y="411"/>
      <point x="214" y="385"/>
      <point x="302" y="356" type="curve" smooth="yes"/>
      <point x="402" y="323"/>
      <point x="441" y="309"/>
      <point x="441" y="231" type="curve" smooth="yes"/>
      <point x="441" y="136"/>
      <point x="360" y="55"/>
      <point x="265" y="55" type="curve" smooth="yes"/>
      <point x="188" y="55"/>
      <point x="138" y="104"/>
      <point x="138" y="180" type="curve" smooth="yes"/>
      <point x="138" y="188"/>
      <point x="138" y="197"/>
      <point x="139" y="207" type="curve"/>
    </contour>
  </outline>
</glyph>
<glyph name="bracketright" format="2">
  <advance width="351"/>
  <unicode hex="005D"/>
  <outline>
    <contour>
      <point x="15" y="-125" type="line"/>
      <point x="152" y="-90"/>
      <point x="241" y="15"/>
      <point x="267" y="153" type="curve" smooth="yes"/>
      <point x="322" y="450" type="line" smooth="yes"/>
      <point x="328" y="482"/>
      <point x="331" y="510"/>
      <point x="331" y="535" type="curve" smooth="yes"/>
      <point x="331" y="636"/>
      <point x="272" y="710"/>
      <point x="175" y="739" type="curve"/>
      <point x="161" y="664" type="line"/>
      <point x="230" y="631"/>
      <point x="259" y="591"/>
      <point x="259" y="519" type="curve" smooth="yes"/>
      <point x="259" y="496"/>
      <point x="256" y="469"/>
      <point x="250" y="438" type="curve" smooth="yes"/>
      <point x="200" y="166" type="line" smooth="yes"/>
      <point x="178" y="48"/>
      <point x="135" y="-6"/>
      <point x="29" y="-50" type="curve"/>
    </contour>
  </outline>
</glyph>
<glyph name="a" format="2">
  <advance width="683"/>
  <unicode hex="0061"/>
  <outline>
    <contour>
      <point x="546" y="0" type="line"/>
      <point x="620" y="0" type="line"/>
      <point x="721" y="547" type="line"/>
      <point x="647" y="547" type="line"/>
      <point x="629" y="450" type="line"/>
      <point x="588" y="527"/>
      <point x="529" y="560"/>
      <point x="434" y="560" type="curve" smooth="yes"/>
      <point x="270" y="560"/>
      <point x="122" y="436"/>
      <point x="92" y="272" type="curve"/>
      <point x="88" y="253"/>
      <point x="87" y="234"/>
      <point x="87" y="216" type="curve" smooth="yes"/>
      <point x="87" y="81"/>
      <point x="185" y="-13"/>
      <point x="334" y="-13" type="curve" smooth="yes"/>
      <point x="427" y="-13"/>
      <point x="492" y="18"/>
      <point x="564" y="96" type="curve"/>
    </contour>
    <contour>
      <point x="164" y="233" type="curve" smooth="yes"/>
      <point x="164" y="246"/>
      <point x="165" y="261"/>
      <point x="168" y="275" type="curve"/>
      <point x="190" y="395"/>
      <point x="303" y="492"/>
      <point x="420" y="492" type="curve" smooth="yes"/>
      <point x="529" y="492"/>
      <point x="601" y="420"/>
      <point x="601" y="318" type="curve" smooth="yes"/>
      <point x="601" y="304"/>
      <point x="600" y="290"/>
      <point x="597" y="275" type="curve" smooth="yes"/>
      <point x="574" y="151"/>
      <point x="464" y="55"/>
      <point x="345" y="55" type="curve" smooth="yes"/>
      <point x="238" y="55"/>
      <point x="164" y="130"/>
    </contour>
  </outline>
</glyph>
<glyph name="d" format="2">
  <advance width="685"/>
  <unicode hex="0064"/>
  <outline>
    <contour>
      <point x="87" y="218" type="curve" smooth="yes"/>
      <point x="87" y="83"/>
      <point x="188" y="-13"/>
      <point x="338" y="-13" type="curve" smooth="yes"/>
      <point x="430" y="-13"/>
      <point x="495" y="20"/>
      <point x="566" y="99" type="curve"/>
      <point x="548" y="0" type="line"/>
      <point x="622" y="0" type="line"/>
      <point x="759" y="739" type="line"/>
      <point x="685" y="739" type="line"/>
      <point x="633" y="460" type="line"/>
      <point x="591" y="525"/>
      <point x="523" y="560"/>
      <point x="437" y="560" type="curve" smooth="yes"/>
      <point x="253" y="560"/>
      <point x="87" y="404"/>
    </contour>
    <contour>
      <point x="164" y="233" type="curve" smooth="yes"/>
      <point x="164" y="366"/>
      <point x="285" y="492"/>
      <point x="419" y="492" type="curve" smooth="yes"/>
      <point x="530" y="492"/>
      <point x="606" y="417"/>
      <point x="606" y="315" type="curve" smooth="yes"/>
      <point x="606" y="182"/>
      <point x="482" y="55"/>
      <point x="348" y="55" type="curve" smooth="yes"/>
      <point x="238" y="55"/>
      <point x="164" y="131"/>
    </contour>
  </outline>
</glyph>
<glyph name="e" format="2">
  <advance width="650"/>
  <unicode hex="0065"/>
  <outline>
    <contour>
      <point x="553" y="180" type="line"/>
      <point x="508" y="105"/>
      <point x="422" y="55"/>
      <point x="339" y="55" type="curve" smooth="yes"/>
      <point x="229" y="55"/>
      <point x="148" y="139"/>
      <point x="162" y="249" type="curve"/>
      <point x="657" y="249" type="line"/>
      <point x="663" y="283"/>
      <point x="667" y="311"/>
      <point x="667" y="335" type="curve" smooth="yes"/>
      <point x="667" y="469"/>
      <point x="562" y="560"/>
      <point x="429" y="560" type="curve" smooth="yes"/>
      <point x="249" y="560"/>
      <point x="88" y="401"/>
      <point x="88" y="221" type="curve" smooth="yes"/>
      <point x="88" y="86"/>
      <point x="186" y="-13"/>
      <point x="329" y="-13" type="curve" smooth="yes"/>
      <point x="448" y="-13"/>
      <point x="569" y="65"/>
      <point x="630" y="180" type="curve"/>
    </contour>
    <contour>
      <point x="177" y="316" type="line"/>
      <point x="216" y="421"/>
      <point x="312" y="492"/>
      <point x="416" y="492" type="curve" smooth="yes"/>
      <point x="522" y="492"/>
      <point x="591" y="425"/>
      <point x="596" y="316" type="curve"/>
    </contour>
  </outline>
</glyph>
<glyph name="g" format="2">
  <advance width="673"/>
  <unicode hex="0067"/>
  <outline>
    <contour>
      <point x="59" y="-17" type="line"/>
      <point x="75" y="-145"/>
      <point x="159" y="-215"/>
      <point x="297" y="-215" type="curve" smooth="yes"/>
      <point x="503" y="-215"/>
      <point x="594" y="-87"/>
      <point x="628" y="98" type="curve" smooth="yes"/>
      <point x="711" y="547" type="line"/>
      <point x="637" y="547" type="line"/>
      <point x="619" y="450" type="line"/>
      <point x="578" y="526"/>
      <point x="518" y="560"/>
      <point x="425" y="560" type="curve" smooth="yes"/>
      <point x="242" y="560"/>
      <point x="87" y="397"/>
      <point x="87" y="216" type="curve" smooth="yes"/>
      <point x="87" y="83"/>
      <point x="183" y="-13"/>
      <point x="325" y="-13" type="curve" smooth="yes"/>
      <point x="424" y="-13"/>
      <point x="498" y="27"/>
      <point x="557" y="111" type="curve"/>
      <point x="530" y="-34"/>
      <point x="477" y="-147"/>
      <point x="308" y="-147" type="curve" smooth="yes"/>
      <point x="196" y="-147"/>
      <point x="150" y="-113"/>
      <point x="131" y="-17" type="curve"/>
    </contour>
    <contour>
      <point x="337" y="55" type="curve" smooth="yes"/>
      <point x="232" y="55"/>
      <point x="164" y="127"/>
      <point x="164" y="230" type="curve" smooth="yes"/>
      <point x="164" y="364"/>
      <point x="272" y="492"/>
      <point x="411" y="492" type="curve" smooth="yes"/>
      <point x="520" y="492"/>
      <point x="592" y="423"/>
      <point x="592" y="322" type="curve" smooth="yes"/>
      <point x="592" y="186"/>
      <point x="476" y="55"/>
    </contour>
  </outline>
</glyph>
<glyph name="j" format="2">
  <advance width="203"/>
  <unicode hex="006A"/>
  <outline>
    <contour>
      <point x="-81" y="-192" type="line"/>
      <point x="-35" y="-190"/>
      <point x="0" y="-180"/>
      <point x="36" y="-158" type="curve" smooth="yes"/>
      <point x="100" y="-118"/>
      <point x="127" y="-72"/>
      <point x="147" y="38" type="curve" smooth="yes"/>
      <point x="241" y="547" type="line"/>
      <point x="167" y="547" type="line"/>
      <point x="73" y="38" type="line" smooth="yes"/>
      <point x="52" y="-76"/>
      <point x="17" y="-116"/>
      <point x="-67" y="-121" type="curve"/>
    </contour>
    <contour>
      <point x="180" y="613" type="line"/>
      <point x="254" y="613" type="line"/>
      <point x="277" y="739" type="line"/>
      <point x="203" y="739" type="line"/>
    </contour>
  </outline>
</glyph>
<glyph name="m" format="2">
  <advance width="938"/>
  <unicode hex="006D"/>
  <outline>
    <contour>
      <point x="63" y="0" type="line"/>
      <point x="137" y="0" type="line"/>
      <point x="196" y="319" type="line" smooth="yes"/>
      <point x="216" y="428"/>
      <point x="283" y="492"/>
      <point x="375" y="492" type="curve" smooth="yes"/>
      <point x="448" y="492"/>
      <point x="497" y="447"/>
      <point x="497" y="375" type="curve" smooth="yes"/>
      <point x="497" y="359"/>
      <point x="495" y="340"/>
      <point x="491" y="319" type="curve" smooth="yes"/>
      <point x="432" y="0" type="line"/>
      <point x="506" y="0" type="line"/>
      <point x="565" y="317" type="line" smooth="yes"/>
      <point x="583" y="414"/>
      <point x="638" y="492"/>
      <point x="747" y="492" type="curve" smooth="yes"/>
      <point x="824" y="492"/>
      <point x="866" y="449"/>
      <point x="866" y="375" type="curve" smooth="yes"/>
      <point x="866" y="358"/>
      <point x="864" y="339"/>
      <point x="860" y="317" type="curve" smooth="yes"/>
      <point x="801" y="0" type="line"/>
      <point x="875" y="0" type="line"/>
      <point x="935" y="325" type="line" smooth="yes"/>
      <point x="940" y="351"/>
      <point x="943" y="374"/>
      <point x="943" y="395" type="curve" smooth="yes"/>
      <point x="943" y="501"/>
      <point x="868" y="560"/>
      <point x="763" y="560" type="curve" smooth="yes"/>
      <point x="679" y="560"/>
      <point x="614" y="528"/>
      <point x="554" y="455" type="curve"/>
      <point x="525" y="529"/>
      <point x="478" y="560"/>
      <point x="395" y="560" type="curve" smooth="yes"/>
      <point x="326" y="560"/>
      <point x="280" y="539"/>
      <point x="227" y="484" type="curve"/>
      <point x="238" y="547" type="line"/>
      <point x="164" y="547" type="line"/>
    </contour>
  </outline>
</glyph>
<glyph name="n" format="2">
  <advance width="610"/>
  <unicode hex="006E"/>
  <outline>
    <contour>
      <point x="63" y="0" type="line"/>
      <point x="137" y="0" type="line"/>
      <point x="193" y="301" type="line" smooth="yes"/>
      <point x="213" y="411"/>
      <point x="272" y="492"/>
      <point x="395" y="492" type="curve" smooth="yes"/>
      <point x="480" y="492"/>
      <point x="534" y="445"/>
      <point x="534" y="361" type="curve" smooth="yes"/>
      <point x="534" y="340"/>
      <point x="531" y="316"/>
      <point x="526" y="287" type="curve" smooth="yes"/>
      <point x="473" y="0" type="line"/>
      <point x="547" y="0" type="line"/>
      <point x="600" y="287" type="line" smooth="yes"/>
      <point x="607" y="324"/>
      <point x="610" y="354"/>
      <point x="610" y="380" type="curve" smooth="yes"/>
      <point x="610" y="494"/>
      <point x="531" y="560"/>
      <point x="417" y="560" type="curve" smooth="yes"/>
      <point x="345" y="560"/>
      <point x="282" y="533"/>
      <point x="225" y="476" type="curve"/>
      <point x="238" y="547" type="line"/>
      <point x="164" y="547" type="line"/>
    </contour>
  </outline>
</glyph>
<glyph name="o" format="2">
  <advance width="655"/>
  <unicode hex="006F"/>
  <outline>
    <contour>
      <point x="87" y="217" type="curve" smooth="yes"/>
      <point x="87" y="82"/>
      <point x="185" y="-13"/>
      <point x="332" y="-13" type="curve" smooth="yes"/>
      <point x="518" y="-13"/>
      <point x="669" y="149"/>
      <point x="669" y="331" type="curve" smooth="yes"/>
      <point x="669" y="465"/>
      <point x="577" y="560"/>
      <point x="436" y="560" type="curve" smooth="yes"/>
      <point x="250" y="560"/>
      <point x="87" y="404"/>
    </contour>
    <contour>
      <point x="163" y="228" type="curve" smooth="yes"/>
      <point x="163" y="365"/>
      <point x="276" y="492"/>
      <point x="417" y="492" type="curve" smooth="yes"/>
      <point x="525" y="492"/>
      <point x="593" y="422"/>
      <point x="593" y="319" type="curve" smooth="yes"/>
      <point x="593" y="181"/>
      <point x="485" y="55"/>
      <point x="342" y="55" type="curve" smooth="yes"/>
      <point x="233" y="55"/>
      <point x="163" y="126"/>
    </contour>
  </outline>
</glyph>
<glyph name="s" format="2">
  <advance width="388"/>
  <unicode hex="0073"/>
  <outline>
    <contour>
      <point x="48" y="161" type="line"/>
      <point x="46" y="148"/>
      <point x="44" y="135"/>
      <point x="44" y="123" type="curve" smooth="yes"/>
      <point x="44" y="39"/>
      <point x="99" y="-13"/>
      <point x="192" y="-13" type="curve" smooth="yes"/>
      <point x="313" y="-13"/>
      <point x="393" y="61"/>
      <point x="393" y="167" type="curve" smooth="yes"/>
      <point x="393" y="237"/>
      <point x="356" y="288"/>
      <point x="267" y="320" type="curve" smooth="yes"/>
      <point x="233" y="332"/>
      <point x="188" y="366"/>
      <point x="188" y="406" type="curve" smooth="yes"/>
      <point x="188" y="461"/>
      <point x="228" y="492"/>
      <point x="283" y="492" type="curve" smooth="yes"/>
      <point x="326" y="492"/>
      <point x="349" y="469"/>
      <point x="349" y="427" type="curve" smooth="yes"/>
      <point x="349" y="422"/>
      <point x="349" y="417"/>
      <point x="348" y="412" type="curve"/>
      <point x="423" y="412" type="line"/>
      <point x="424" y="421"/>
      <point x="425" y="430"/>
      <point x="425" y="439" type="curve" smooth="yes"/>
      <point x="425" y="512"/>
      <point x="376" y="560"/>
      <point x="297" y="560" type="curve" smooth="yes"/>
      <point x="188" y="560"/>
      <point x="111" y="496"/>
      <point x="111" y="394" type="curve" smooth="yes"/>
      <point x="111" y="339"/>
      <point x="145" y="284"/>
      <point x="227" y="255" type="curve" smooth="yes"/>
      <point x="294" y="231"/>
      <point x="316" y="192"/>
      <point x="316" y="150" type="curve" smooth="yes"/>
      <point x="316" y="87"/>
      <point x="273" y="55"/>
      <point x="204" y="55" type="curve" smooth="yes"/>
      <point x="149" y="55"/>
      <point x="119" y="85"/>
      <point x="119" y="139" type="curve" smooth="yes"/>
      <point x="119" y="146"/>
      <point x="120" y="155"/>
      <point x="121" y="161" type="curve"/>
    </contour>
  </outline>
</glyph>
<glyph name="u" format="2">
  <advance width="608"/>
  <unicode hex="0075"/>
  <outline>
    <contour>
      <point x="471" y="0" type="line"/>
      <point x="545" y="0" type="line"/>
      <point x="646" y="547" type="line"/>
      <point x="572" y="547" type="line"/>
      <point x="520" y="266" type="line" smooth="yes"/>
      <point x="500" y="152"/>
      <point x="439" y="55"/>
      <point x="310" y="55" type="curve" smooth="yes"/>
      <point x="225" y="55"/>
      <point x="176" y="98"/>
      <point x="176" y="181" type="curve" smooth="yes"/>
      <point x="176" y="202"/>
      <point x="179" y="226"/>
      <point x="184" y="252" type="curve" smooth="yes"/>
      <point x="238" y="547" type="line"/>
      <point x="164" y="547" type="line"/>
      <point x="110" y="252" type="line" smooth="yes"/>
      <point x="104" y="218"/>
      <point x="100" y="189"/>
      <point x="100" y="163" type="curve" smooth="yes"/>
      <point x="100" y="48"/>
      <point x="178" y="-13"/>
      <point x="293" y="-13" type="curve" smooth="yes"/>
      <point x="378" y="-13"/>
      <point x="437" y="17"/>
      <point x="487" y="85" type="curve"/>
    </contour>
  </outline>
</glyph>
<glyph name="braceright" format="2">
  <advance width="348"/>
  <unicode hex="007D"/>
  <outline>
    <contour>
      <point x="36" y="-126" type="line"/>
      <point x="146" y="-126"/>
      <point x="195" y="-101"/>
      <point x="216" y="13" type="curve" smooth="yes"/>
      <point x="248" y="183" type="line" smooth="yes"/>
      <point x="259" y="245"/>
      <point x="275" y="261"/>
      <point x="340" y="272" type="curve"/>
      <point x="354" y="341" type="line"/>
      <point x="307" y="349"/>
      <point x="290" y="361"/>
      <point x="290" y="394" type="curve" smooth="yes"/>
      <point x="290" y="404"/>
      <point x="291" y="416"/>
      <point x="294" y="430" type="curve"/>
      <point x="325" y="600" type="line" smooth="yes"/>
      <point x="328" y="617"/>
      <point x="330" y="633"/>
      <point x="330" y="647" type="curve" smooth="yes"/>
      <point x="330" y="733"/>
      <point x="271" y="739"/>
      <point x="196" y="739" type="curve"/>
      <point x="184" y="672" type="line"/>
      <point x="235" y="669"/>
      <point x="250" y="658"/>
      <point x="250" y="624" type="curve" smooth="yes"/>
      <point x="250" y="619"/>
      <point x="249" y="606"/>
      <point x="248" y="601" type="curve" smooth="yes"/>
      <point x="217" y="431" type="line" smooth="yes"/>
      <point x="214" y="414"/>
      <point x="212" y="399"/>
      <point x="212" y="387" type="curve" smooth="yes"/>
      <point x="212" y="335"/>
      <point x="241" y="323"/>
      <point x="283" y="306" type="curve"/>
      <point x="208" y="282"/>
      <point x="186" y="262"/>
      <point x="171" y="182" type="curve" smooth="yes"/>
      <point x="139" y="12" type="line" smooth="yes"/>
      <point x="128" y="-51"/>
      <point x="107" y="-54"/>
      <point x="48" y="-59" type="curve"/>
    </contour>
  </outline>
</glyph>
<glyph name="section" format="2">
  <advance width="615"/>
  <unicode hex="00A7"/>
  <outline>
    <contour>
      <point x="118" y="64" type="line"/>
      <point x="116" y="51"/>
      <point x="115" y="39"/>
      <point x="115" y="27" type="curve" smooth="yes"/>
      <point x="115" y="-73"/>
      <point x="182" y="-141"/>
      <point x="287" y="-141" type="curve" smooth="yes"/>
      <point x="398" y="-141"/>
      <point x="511" y="-51"/>
      <point x="511" y="65" type="curve" smooth="yes"/>
      <point x="511" y="94"/>
      <point x="501" y="119"/>
      <point x="480" y="146" type="curve"/>
      <point x="537" y="184"/>
      <point x="585" y="244"/>
      <point x="585" y="315" type="curve" smooth="yes"/>
      <point x="585" y="363"/>
      <point x="557" y="401"/>
      <point x="500" y="431" type="curve" smooth="yes"/>
      <point x="356" y="505" type="line" smooth="yes"/>
      <point x="327" y="520"/>
      <point x="311" y="545"/>
      <point x="311" y="574" type="curve" smooth="yes"/>
      <point x="311" y="639"/>
      <point x="372" y="685"/>
      <point x="434" y="685" type="curve" smooth="yes"/>
      <point x="493" y="685"/>
      <point x="523" y="659"/>
      <point x="524" y="606" type="curve"/>
      <point x="595" y="606" type="line"/>
      <point x="596" y="612"/>
      <point x="596" y="617"/>
      <point x="596" y="622" type="curve" smooth="yes"/>
      <point x="596" y="699"/>
      <point x="537" y="752"/>
      <point x="446" y="752" type="curve" smooth="yes"/>
      <point x="339" y="752"/>
      <point x="241" y="668"/>
      <point x="241" y="558" type="curve" smooth="yes"/>
      <point x="241" y="533"/>
      <point x="248" y="513"/>
      <point x="264" y="491" type="curve"/>
      <point x="201" y="452"/>
      <point x="147" y="389"/>
      <point x="147" y="312" type="curve" smooth="yes"/>
      <point x="147" y="269"/>
      <point x="172" y="241"/>
      <point x="234" y="207" type="curve" smooth="yes"/>
      <point x="364" y="137" type="line" smooth="yes"/>
      <point x="417" y="108"/>
      <point x="441" y="83"/>
      <point x="441" y="50" type="curve" smooth="yes"/>
      <point x="441" y="-22"/>
      <point x="365" y="-74"/>
      <point x="299" y="-74" type="curve" smooth="yes"/>
      <point x="228" y="-74"/>
      <point x="185" y="-28"/>
      <point x="185" y="43" type="curve" smooth="yes"/>
      <point x="185" y="50"/>
      <point x="185" y="57"/>
      <point x="186" y="64" type="curve"/>
    </contour>
    <contour>
      <point x="441" y="182" type="curve"/>
      <point x="261" y="278" type="line" smooth="yes"/>
      <point x="233" y="293"/>
      <point x="219" y="312"/>
      <point x="219" y="336" type="curve" smooth="yes"/>
      <point x="219" y="384"/>
      <point x="257" y="430"/>
      <point x="296" y="454" type="curve"/>
      <point x="468" y="365" type="line" smooth="yes"/>
      <point x="500" y="349"/>
      <point x="515" y="326"/>
      <point x="515" y="297" type="curve" smooth="yes"/>
      <point x="515" y="251"/>
      <point x="477" y="205"/>
    </contour>
  </outline>
</glyph>
<glyph name="macron" format="2">
  <advance width="485"/>
  <unicode hex="00AF"/>
  <outline>
    <contour>
      <point x="193" y="643" type="line"/>
      <point x="530" y="643" type="line"/>
      <point x="542" y="707" type="line"/>
      <point x="205" y="707" type="line"/>
    </contour>
  </outline>
</glyph>
<glyph name="threesuperior" format="2">
  <advance width="332"/>
  <unicode hex="00B3"/>
  <outline>
    <contour>
      <point x="94" y="439" type="line"/>
      <point x="92" y="423"/>
      <point x="91" y="410"/>
      <point x="91" y="398" type="curve" smooth="yes"/>
      <point x="91" y="327"/>
      <point x="148" y="280"/>
      <point x="218" y="280" type="curve" smooth="yes"/>
      <point x="309" y="280"/>
      <point x="401" y="361"/>
      <point x="401" y="454" type="curve" smooth="yes"/>
      <point x="401" y="492"/>
      <point x="384" y="522"/>
      <point x="350" y="546" type="curve"/>
      <point x="387" y="575"/>
      <point x="408" y="602"/>
      <point x="408" y="650" type="curve" smooth="yes"/>
      <point x="408" y="706"/>
      <point x="366" y="747"/>
      <point x="305" y="747" type="curve" smooth="yes"/>
      <point x="230" y="747"/>
      <point x="173" y="695"/>
      <point x="157" y="615" type="curve"/>
      <point x="218" y="615" type="line"/>
      <point x="227" y="655"/>
      <point x="247" y="692"/>
      <point x="294" y="692" type="curve" smooth="yes"/>
      <point x="326" y="692"/>
      <point x="347" y="672"/>
      <point x="347" y="643" type="curve" smooth="yes"/>
      <point x="347" y="591"/>
      <point x="300" y="571"/>
      <point x="254" y="571" type="curve" smooth="yes"/>
      <point x="234" y="571" type="line"/>
      <point x="224" y="517" type="line"/>
      <point x="241" y="517" type="line" smooth="yes"/>
      <point x="290" y="517"/>
      <point x="338" y="501"/>
      <point x="338" y="441" type="curve" smooth="yes"/>
      <point x="338" y="385"/>
      <point x="282" y="335"/>
      <point x="227" y="335" type="curve" smooth="yes"/>
      <point x="187" y="335"/>
      <point x="153" y="367"/>
      <point x="153" y="407" type="curve" smooth="yes"/>
      <point x="153" y="415"/>
      <point x="153" y="426"/>
      <point x="155" y="439" type="curve"/>
    </contour>
  </outline>
</glyph>
<glyph name="threequarters" format="2">
  <advance width="831"/>
  <unicode hex="00BE"/>
  <outline>
    <contour>
      <point x="94" y="439" type="line"/>
      <point x="91" y="423"/>
      <point x="90" y="410"/>
      <point x="90" y="399" type="curve" smooth="yes"/>
      <point x="90" y="328"/>
      <point x="148" y="280"/>
      <point x="218" y="280" type="curve" smooth="yes"/>
      <point x="309" y="280"/>
      <point x="401" y="361"/>
      <point x="401" y="454" type="curve" smooth="yes"/>
      <point x="401" y="492"/>
      <point x="384" y="522"/>
      <point x="350" y="546" type="curve"/>
      <point x="387" y="575"/>
      <point x="408" y="602"/>
      <point x="408" y="650" type="curve" smooth="yes"/>
      <point x="408" y="706"/>
      <point x="366" y="747"/>
      <point x="305" y="747" type="curve" smooth="yes"/>
      <point x="230" y="747"/>
      <point x="173" y="695"/>
      <point x="157" y="615" type="curve"/>
      <point x="218" y="615" type="line"/>
      <point x="227" y="655"/>
      <point x="247" y="692"/>
      <point x="294" y="692" type="curve" smooth="yes"/>
      <point x="326" y="692"/>
      <point x="347" y="672"/>
      <point x="347" y="643" type="curve" smooth="yes"/>
      <point x="347" y="591"/>
      <point x="300" y="571"/>
      <point x="254" y="571" type="curve" smooth="yes"/>
      <point x="234" y="571" type="line"/>
      <point x="224" y="517" type="line"/>
      <point x="241" y="517" type="line" smooth="yes"/>
      <point x="290" y="517"/>
      <point x="338" y="501"/>
      <point x="338" y="441" type="curve" smooth="yes"/>
      <point x="338" y="385"/>
      <point x="282" y="335"/>
      <point x="227" y="335" type="curve" smooth="yes"/>
      <point x="187" y="335"/>
      <point x="153" y="367"/>
      <point x="153" y="407" type="curve" smooth="yes"/>
      <point x="153" y="415"/>
      <point x="153" y="426"/>
      <point x="155" y="439" type="curve"/>
    </contour>
    <contour>
      <point x="239" y="0" type="line"/>
      <point x="293" y="0" type="line"/>
      <point x="772" y="739" type="line"/>
      <point x="717" y="739" type="line"/>
    </contour>
    <contour>
      <point x="485" y="79" type="line"/>
      <point x="716" y="79" type="line"/>
      <point x="701" y="0" type="line"/>
      <point x="761" y="0" type="line"/>
      <point x="776" y="79" type="line"/>
      <point x="818" y="79" type="line"/>
      <point x="828" y="134" type="line"/>
      <point x="786" y="134" type="line"/>
      <point x="845" y="451" type="line"/>
      <point x="780" y="451" type="line"/>
      <point x="494" y="129" type="line"/>
    </contour>
    <contour>
      <point x="570" y="134" type="line"/>
      <point x="768" y="359" type="line"/>
      <point x="726" y="134" type="line"/>
    </contour>
  </outline>
</glyph>
<glyph name="questiondown" format="2">
  <advance width="591"/>
  <unicode hex="00BF"/>
  <outline>
    <contour>
      <point x="463" y="39" type="line"/>
      <point x="437" y="-59"/>
      <point x="380" y="-138"/>
      <point x="267" y="-138" type="curve" smooth="yes"/>
      <point x="189" y="-138"/>
      <point x="139" y="-90"/>
      <point x="139" y="-20" type="curve" smooth="yes"/>
      <point x="139" y="53"/>
      <point x="192" y="102"/>
      <point x="252" y="150" type="curve" smooth="yes"/>
      <point x="313" y="199"/>
      <point x="376" y="259"/>
      <point x="392" y="339" type="curve" smooth="yes"/>
      <point x="395" y="354" type="line"/>
      <point x="325" y="354" type="line"/>
      <point x="323" y="344" type="line" smooth="yes"/>
      <point x="311" y="286"/>
      <point x="272" y="244"/>
      <point x="190" y="182" type="curve" smooth="yes"/>
      <point x="115" y="125"/>
      <point x="64" y="67"/>
      <point x="64" y="-31" type="curve" smooth="yes"/>
      <point x="64" y="-134"/>
      <point x="139" y="-205"/>
      <point x="254" y="-205" type="curve" smooth="yes"/>
      <point x="404" y="-205"/>
      <point x="505" y="-101"/>
      <point x="533" y="39" type="curve"/>
    </contour>
    <contour>
      <point x="334" y="421" type="line"/>
      <point x="408" y="421" type="line"/>
      <point x="431" y="547" type="line"/>
      <point x="357" y="547" type="line"/>
    </contour>
  </outline>
</glyph>
<glyph name="Acircumflex" format="2">
  <advance width="740"/>
  <unicode hex="00C2"/>
  <outline>
    <component base="A"/>
    <contour>
      <point x="342" y="805" type="line"/>
      <point x="433" y="805" type="line"/>
      <point x="535" y="879" type="line"/>
      <point x="607" y="805" type="line"/>
      <point x="696" y="805" type="line"/>
      <point x="577" y="931" type="line"/>
      <point x="511" y="931" type="line"/>
    </contour>
  </outline>
</glyph>
<glyph name="Ccedilla" format="2">
  <advance width="813"/>
  <unicode hex="00C7"/>
  <outline>
    <component base="C"/>
    <contour>
      <point x="300" y="-166" type="line"/>
      <point x="305" y="-214"/>
      <point x="333" y="-240"/>
      <point x="380" y="-240" type="curve"/>
      <point x="443" y="-240"/>
      <point x="491" y="-186"/>
      <point x="491" y="-125" type="curve" smooth="yes"/>
      <point x="491" y="-86"/>
      <point x="468" y="-61"/>
      <point x="428" y="-61" type="curve" smooth="yes"/>
      <point x="416" y="-61"/>
      <point x="407" y="-63"/>
      <point x="392" y="-68" type="curve"/>
      <point x="435" y="0" type="line"/>
      <point x="396" y="1" type="line"/>
      <point x="329" y="-103" type="line"/>
      <point x="356" y="-121" type="line"/>
      <point x="374" y="-105"/>
      <point x="386" y="-99"/>
      <point x="404" y="-99" type="curve" smooth="yes"/>
      <point x="427" y="-99"/>
      <point x="442" y="-114"/>
      <point x="442" y="-136" type="curve" smooth="yes"/>
      <point x="442" y="-139"/>
      <point x="442" y="-143"/>
      <point x="441" y="-147" type="curve"/>
      <point x="436" y="-175"/>
      <point x="415" y="-193"/>
      <point x="387" y="-193" type="curve" smooth="yes"/>
      <point x="364" y="-193"/>
      <point x="353" y="-183"/>
      <point x="349" y="-159" type="curve"/>
    </contour>
  </outline>
</glyph>
<glyph name="Ntilde" format="2">
  <advance width="740"/>
  <unicode hex="00D1"/>
  <outline>
    <component base="N"/>
    <contour>
      <point x="416" y="815" type="line"/>
      <point x="435" y="835"/>
      <point x="455" y="847"/>
      <point x="482" y="847" type="curve" smooth="yes"/>
      <point x="493" y="847"/>
      <point x="506" y="844"/>
      <point x="520" y="837" type="curve" smooth="yes"/>
      <point x="551" y="822"/>
      <point x="567" y="815"/>
      <point x="582" y="815" type="curve" smooth="yes"/>
      <point x="615" y="815"/>
      <point x="661" y="838"/>
      <point x="682" y="864" type="curve"/>
      <point x="658" y="910" type="line"/>
      <point x="633" y="888"/>
      <point x="614" y="879"/>
      <point x="595" y="879" type="curve" smooth="yes"/>
      <point x="586" y="879"/>
      <point x="566" y="885"/>
      <point x="550" y="893" type="curve"/>
      <point x="522" y="906"/>
      <point x="512" y="910"/>
      <point x="494" y="910" type="curve" smooth="yes"/>
      <point x="458" y="910"/>
      <point x="421" y="892"/>
      <point x="392" y="861" type="curve"/>
    </contour>
  </outline>
</glyph>
<glyph name="Oacute" format="2">
  <advance width="869"/>
  <unicode hex="00D3"/>
  <outline>
    <component base="O"/>
    <contour>
      <point x="535" y="792" type="line"/>
      <point x="749" y="906" type="line"/>
      <point x="726" y="964" type="line"/>
      <point x="511" y="848" type="line"/>
    </contour>
  </outline>
</glyph>
<glyph name="Ocircumflex" format="2">
  <advance width="869"/>
  <unicode hex="00D4"/>
  <outline>
    <component base="O"/>
    <contour>
      <point x="406" y="805" type="line"/>
      <point x="497" y="805" type="line"/>
      <point x="599" y="879" type="line"/>
      <point x="671" y="805" type="line"/>
      <point x="760" y="805" type="line"/>
      <point x="641" y="931" type="line"/>
      <point x="575" y="931" type="line"/>
    </contour>
  </outline>
</glyph>
<glyph name="Otilde" format="2">
  <advance width="869"/>
  <unicode hex="00D5"/>
  <outline>
    <component base="O"/>
    <contour>
      <point x="484" y="815" type="line"/>
      <point x="507" y="836"/>
      <point x="523" y="847"/>
      <point x="550" y="847" type="curve" smooth="yes"/>
      <point x="561" y="847"/>
      <point x="571" y="844"/>
      <point x="588" y="837" type="curve" smooth="yes"/>
      <point x="620" y="824"/>
      <point x="643" y="815"/>
      <point x="658" y="815" type="curve" smooth="yes"/>
      <point x="691" y="815"/>
      <point x="729" y="838"/>
      <point x="750" y="864" type="curve"/>
      <point x="726" y="910" type="line"/>
      <point x="701" y="888"/>
      <point x="682" y="879"/>
      <point x="663" y="879" type="curve" smooth="yes"/>
      <point x="654" y="879"/>
      <point x="634" y="885"/>
      <point x="618" y="893" type="curve"/>
      <point x="590" y="906"/>
      <point x="580" y="910"/>
      <point x="562" y="910" type="curve" smooth="yes"/>
      <point x="526" y="910"/>
      <point x="489" y="892"/>
      <point x="460" y="861" type="curve"/>
    </contour>
  </outline>
</glyph>
<glyph name="germandbls" format="2">
  <advance width="554"/>
  <unicode hex="00DF"/>
  <outline>
    <contour>
      <point x="59" y="0" type="line"/>
      <point x="133" y="0" type="line"/>
      <point x="153" y="109" type="line"/>
      <point x="175" y="28"/>
      <point x="231" y="-13"/>
      <point x="317" y="-13" type="curve" smooth="yes"/>
      <point x="456" y="-13"/>
      <point x="565" y="110"/>
      <point x="565" y="245" type="curve" smooth="yes"/>
      <point x="565" y="316"/>
      <point x="530" y="366"/>
      <point x="461" y="389" type="curve"/>
      <point x="537" y="430"/>
      <point x="579" y="499"/>
      <point x="579" y="585" type="curve" smooth="yes"/>
      <point x="579" y="683"/>
      <point x="509" y="752"/>
      <point x="402" y="752" type="curve" smooth="yes"/>
      <point x="237" y="752"/>
      <point x="174" y="622"/>
      <point x="148" y="481" type="curve" smooth="yes"/>
    </contour>
    <contour>
      <point x="171" y="203" type="line"/>
      <point x="222" y="481" type="line" smooth="yes"/>
      <point x="239" y="575"/>
      <point x="275" y="684"/>
      <point x="391" y="684" type="curve" smooth="yes"/>
      <point x="459" y="684"/>
      <point x="503" y="640"/>
      <point x="503" y="576" type="curve" smooth="yes"/>
      <point x="503" y="469"/>
      <point x="414" y="408"/>
      <point x="313" y="408" type="curve" smooth="yes"/>
      <point x="300" y="408" type="line"/>
      <point x="287" y="341" type="line"/>
      <point x="333" y="341" type="line" smooth="yes"/>
      <point x="433" y="341"/>
      <point x="488" y="301"/>
      <point x="488" y="228" type="curve" smooth="yes"/>
      <point x="488" y="141"/>
      <point x="419" y="55"/>
      <point x="327" y="55" type="curve" smooth="yes"/>
      <point x="261" y="55"/>
      <point x="219" y="102"/>
      <point x="219" y="172" type="curve" smooth="yes"/>
      <point x="219" y="182"/>
      <point x="220" y="192"/>
      <point x="222" y="203" type="curve"/>
    </contour>
  </outline>
</glyph>
<glyph name="atilde" format="2">
  <advance width="683"/>
  <unicode hex="00E3"/>
  <outline>
    <component base="a"/>
    <contour>
      <point x="356" y="633" type="line"/>
      <point x="377" y="652"/>
      <point x="399" y="665"/>
      <point x="422" y="665" type="curve" smooth="yes"/>
      <point x="433" y="665"/>
      <point x="446" y="662"/>
      <point x="460" y="655" type="curve" smooth="yes"/>
      <point x="491" y="640"/>
      <point x="507" y="633"/>
      <point x="522" y="633" type="curve" smooth="yes"/>
      <point x="555" y="633"/>
      <point x="601" y="656"/>
      <point x="622" y="682" type="curve"/>
      <point x="598" y="728" type="line"/>
      <point x="573" y="706"/>
      <point x="554" y="697"/>
      <point x="535" y="697" type="curve" smooth="yes"/>
      <point x="526" y="697"/>
      <point x="506" y="703"/>
      <point x="490" y="711" type="curve"/>
      <point x="462" y="724"/>
      <point x="452" y="728"/>
      <point x="434" y="728" type="curve" smooth="yes"/>
      <point x="398" y="728"/>
      <point x="361" y="710"/>
      <point x="332" y="679" type="curve"/>
    </contour>
  </outline>
</glyph>
<glyph name="aring" format="2">
  <advance width="683"/>
  <unicode hex="00E5"/>
  <outline>
    <component base="a"/>
    <contour>
      <point x="387" y="685" type="curve" smooth="yes"/>
      <point x="387" y="643"/>
      <point x="419" y="610"/>
      <point x="464" y="610" type="curve" smooth="yes"/>
      <point x="521" y="610"/>
      <point x="575" y="662"/>
      <point x="575" y="719" type="curve" smooth="yes"/>
      <point x="575" y="761"/>
      <point x="543" y="794"/>
      <point x="499" y="794" type="curve" smooth="yes"/>
      <point x="443" y="794"/>
      <point x="387" y="742"/>
    </contour>
    <contour>
      <point x="429" y="692" type="curve" smooth="yes"/>
      <point x="429" y="723"/>
      <point x="459" y="753"/>
      <point x="490" y="753" type="curve" smooth="yes"/>
      <point x="516" y="753"/>
      <point x="533" y="735"/>
      <point x="533" y="711" type="curve" smooth="yes"/>
      <point x="533" y="679"/>
      <point x="503" y="651"/>
      <point x="472" y="651" type="curve" smooth="yes"/>
      <point x="447" y="651"/>
      <point x="429" y="668"/>
    </contour>
  </outline>
</glyph>
<glyph name="ae" format="2">
  <advance width="1157"/>
  <unicode hex="00E6"/>
  <outline>
    <contour>
      <point x="87" y="217" type="curve" smooth="yes"/>
      <point x="87" y="83"/>
      <point x="184" y="-13"/>
      <point x="329" y="-13" type="curve" smooth="yes"/>
      <point x="420" y="-13"/>
      <point x="489" y="18"/>
      <point x="565" y="92" type="curve"/>
      <point x="548" y="0" type="line"/>
      <point x="619" y="0" type="line"/>
      <point x="636" y="92" type="line"/>
      <point x="683" y="22"/>
      <point x="750" y="-13"/>
      <point x="837" y="-13" type="curve" smooth="yes"/>
      <point x="958" y="-13"/>
      <point x="1079" y="64"/>
      <point x="1138" y="178" type="curve"/>
      <point x="1061" y="178" type="line"/>
      <point x="1016" y="103"/>
      <point x="933" y="55"/>
      <point x="849" y="55" type="curve" smooth="yes"/>
      <point x="743" y="55"/>
      <point x="653" y="137"/>
      <point x="669" y="247" type="curve"/>
      <point x="1164" y="247" type="line"/>
      <point x="1171" y="283"/>
      <point x="1174" y="312"/>
      <point x="1174" y="338" type="curve" smooth="yes"/>
      <point x="1174" y="469"/>
      <point x="1069" y="560"/>
      <point x="938" y="560" type="curve" smooth="yes"/>
      <point x="849" y="560"/>
      <point x="776" y="526"/>
      <point x="703" y="452" type="curve"/>
      <point x="720" y="547" type="line"/>
      <point x="649" y="547" type="line"/>
      <point x="632" y="452" type="line"/>
      <point x="592" y="526"/>
      <point x="530" y="560"/>
      <point x="434" y="560" type="curve" smooth="yes"/>
      <point x="249" y="560"/>
      <point x="87" y="402"/>
    </contour>
    <contour>
      <point x="165" y="231" type="curve" smooth="yes"/>
      <point x="165" y="368"/>
      <point x="283" y="492"/>
      <point x="422" y="492" type="curve" smooth="yes"/>
      <point x="534" y="492"/>
      <point x="606" y="423"/>
      <point x="606" y="321" type="curve" smooth="yes"/>
      <point x="606" y="182"/>
      <point x="484" y="55"/>
      <point x="343" y="55" type="curve" smooth="yes"/>
      <point x="236" y="55"/>
      <point x="165" y="129"/>
    </contour>
    <contour>
      <point x="684" y="314" type="line"/>
      <point x="719" y="419"/>
      <point x="818" y="492"/>
      <point x="927" y="492" type="curve" smooth="yes"/>
      <point x="1034" y="492"/>
      <point x="1104" y="422"/>
      <point x="1104" y="314" type="curve"/>
    </contour>
  </outline>
</glyph>
<glyph name="ccedilla" format="2">
  <advance width="647"/>
  <unicode hex="00E7"/>
  <outline>
    <component base="c"/>
    <contour>
      <point x="229" y="-151" type="line"/>
      <point x="230" y="-198"/>
      <point x="257" y="-224"/>
      <point x="302" y="-224" type="curve" smooth="yes"/>
      <point x="363" y="-224"/>
      <point x="410" y="-172"/>
      <point x="410" y="-113" type="curve" smooth="yes"/>
      <point x="410" y="-75"/>
      <point x="387" y="-51"/>
      <point x="347" y="-51" type="curve" smooth="yes"/>
      <point x="336" y="-51"/>
      <point x="328" y="-52"/>
      <point x="313" y="-58" type="curve"/>
      <point x="349" y="0" type="line"/>
      <point x="312" y="2" type="line"/>
      <point x="254" y="-90" type="line"/>
      <point x="281" y="-108" type="line"/>
      <point x="298" y="-90"/>
      <point x="310" y="-84"/>
      <point x="327" y="-84" type="curve" smooth="yes"/>
      <point x="351" y="-84"/>
      <point x="366" y="-99"/>
      <point x="366" y="-123" type="curve" smooth="yes"/>
      <point x="366" y="-154"/>
      <point x="344" y="-181"/>
      <point x="311" y="-181" type="curve" smooth="yes"/>
      <point x="289" y="-181"/>
      <point x="276" y="-169"/>
      <point x="274" y="-146" type="curve"/>
    </contour>
  </outline>
</glyph>
<glyph name="egrave" format="2">
  <advance width="650"/>
  <unicode hex="00E8"/>
  <outline>
    <component base="e"/>
    <contour>
      <point x="315" y="718" type="line"/>
      <point x="492" y="610" type="line"/>
      <point x="535" y="666" type="line"/>
      <point x="358" y="776" type="line"/>
    </contour>
  </outline>
</glyph>
<glyph name="eth" format="2">
  <advance width="655"/>
  <unicode hex="00F0"/>
  <outline>
    <contour>
      <point x="87" y="217" type="curve" smooth="yes"/>
      <point x="87" y="82"/>
      <point x="184" y="-13"/>
      <point x="332" y="-13" type="curve" smooth="yes"/>
      <point x="530" y="-13"/>
      <point x="672" y="158"/>
      <point x="672" y="348" type="curve" smooth="yes"/>
      <point x="672" y="471"/>
      <point x="582" y="576"/>
      <point x="501" y="660" type="curve"/>
      <point x="598" y="699" type="line"/>
      <point x="567" y="743" type="line"/>
      <point x="464" y="701" type="line"/>
      <point x="443" y="724"/>
      <point x="432" y="735"/>
      <point x="406" y="756" type="curve"/>
      <point x="348" y="727" type="line"/>
      <point x="367" y="709"/>
      <point x="383" y="691"/>
      <point x="398" y="672" type="curve"/>
      <point x="312" y="637" type="line"/>
      <point x="340" y="591" type="line"/>
      <point x="434" y="630" type="line"/>
      <point x="462" y="601"/>
      <point x="486" y="574"/>
      <point x="512" y="538" type="curve"/>
      <point x="472" y="552"/>
      <point x="453" y="556"/>
      <point x="419" y="556" type="curve" smooth="yes"/>
      <point x="240" y="556"/>
      <point x="87" y="394"/>
    </contour>
    <contour>
      <point x="163" y="228" type="curve" smooth="yes"/>
      <point x="163" y="365"/>
      <point x="277" y="492"/>
      <point x="417" y="492" type="curve" smooth="yes"/>
      <point x="525" y="492"/>
      <point x="593" y="422"/>
      <point x="593" y="319" type="curve" smooth="yes"/>
      <point x="593" y="181"/>
      <point x="485" y="55"/>
      <point x="343" y="55" type="curve" smooth="yes"/>
      <point x="233" y="55"/>
      <point x="163" y="126"/>
    </contour>
  </outline>
</glyph>
<glyph name="ntilde" format="2">
  <advance width="610"/>
  <unicode hex="00F1"/>
  <outline>
    <component base="n"/>
    <contour>
      <point x="303" y="633" type="line"/>
      <point x="323" y="653"/>
      <point x="342" y="665"/>
      <point x="369" y="665" type="curve" smooth="yes"/>
      <point x="386" y="665"/>
      <point x="403" y="659"/>
      <point x="418" y="651" type="curve" smooth="yes"/>
      <point x="443" y="638"/>
      <point x="456" y="633"/>
      <point x="469" y="633" type="curve" smooth="yes"/>
      <point x="502" y="633"/>
      <point x="548" y="656"/>
      <point x="569" y="682" type="curve"/>
      <point x="545" y="728" type="line"/>
      <point x="520" y="706"/>
      <point x="501" y="697"/>
      <point x="482" y="697" type="curve" smooth="yes"/>
      <point x="473" y="697"/>
      <point x="453" y="703"/>
      <point x="437" y="711" type="curve"/>
      <point x="409" y="724"/>
      <point x="399" y="728"/>
      <point x="381" y="728" type="curve" smooth="yes"/>
      <point x="345" y="728"/>
      <point x="308" y="710"/>
      <point x="279" y="679" type="curve"/>
    </contour>
  </outline>
</glyph>
<glyph name="otilde" format="2">
  <advance width="655"/>
  <unicode hex="00F5"/>
  <outline>
    <component base="o"/>
    <contour>
      <point x="339" y="633" type="line"/>
      <point x="362" y="655"/>
      <point x="378" y="665"/>
      <point x="396" y="665" type="curve" smooth="yes"/>
      <point x="411" y="665"/>
      <point x="439" y="656"/>
      <point x="452" y="650" type="curve" smooth="yes"/>
      <point x="469" y="642"/>
      <point x="492" y="633"/>
      <point x="515" y="633" type="curve" smooth="yes"/>
      <point x="545" y="633"/>
      <point x="584" y="656"/>
      <point x="605" y="682" type="curve"/>
      <point x="581" y="728" type="line"/>
      <point x="556" y="706"/>
      <point x="537" y="697"/>
      <point x="518" y="697" type="curve" smooth="yes"/>
      <point x="509" y="697"/>
      <point x="489" y="703"/>
      <point x="473" y="711" type="curve"/>
      <point x="445" y="724"/>
      <point x="435" y="728"/>
      <point x="413" y="728" type="curve" smooth="yes"/>
      <point x="381" y="728"/>
      <point x="344" y="710"/>
      <point x="315" y="679" type="curve"/>
    </contour>
  </outline>
</glyph>
<glyph name="odieresis" format="2">
  <advance width="655"/>
  <unicode hex="00F6"/>
  <outline>
    <component base="o"/>
    <contour>
      <point x="332" y="623" type="line"/>
      <point x="406" y="623" type="line"/>
      <point x="430" y="749" type="line"/>
      <point x="356" y="749" type="line"/>
    </contour>
    <contour>
      <point x="479" y="623" type="line"/>
      <point x="553" y="623" type="line"/>
      <point x="577" y="749" type="line"/>
      <point x="503" y="749" type="line"/>
    </contour>
  </outline>
</glyph>
<glyph name="oe" format="2">
  <advance width="1137"/>
  <unicode hex="0153"/>
  <outline>
    <contour>
      <point x="88" y="219" type="curve" smooth="yes"/>
      <point x="88" y="85"/>
      <point x="184" y="-13"/>
      <point x="329" y="-13" type="curve" smooth="yes"/>
      <point x="435" y="-13"/>
      <point x="518" y="33"/>
      <point x="597" y="138" type="curve"/>
      <point x="625" y="43"/>
      <point x="711" y="-13"/>
      <point x="826" y="-13" type="curve" smooth="yes"/>
      <point x="949" y="-13"/>
      <point x="1068" y="68"/>
      <point x="1119" y="179" type="curve"/>
      <point x="1045" y="179" type="line"/>
      <point x="990" y="96"/>
      <point x="920" y="55"/>
      <point x="834" y="55" type="curve" smooth="yes"/>
      <point x="720" y="55"/>
      <point x="643" y="135"/>
      <point x="654" y="248" type="curve"/>
      <point x="1142" y="248" type="line"/>
      <point x="1150" y="274"/>
      <point x="1156" y="306"/>
      <point x="1156" y="338" type="curve" smooth="yes"/>
      <point x="1156" y="467"/>
      <point x="1062" y="560"/>
      <point x="920" y="560" type="curve" smooth="yes"/>
      <point x="812" y="560"/>
      <point x="723" y="512"/>
      <point x="648" y="414" type="curve"/>
      <point x="606" y="513"/>
      <point x="536" y="560"/>
      <point x="428" y="560" type="curve" smooth="yes"/>
      <point x="247" y="560"/>
      <point x="88" y="399"/>
    </contour>
    <contour>
      <point x="164" y="230" type="curve" smooth="yes"/>
      <point x="164" y="364"/>
      <point x="277" y="492"/>
      <point x="414" y="492" type="curve" smooth="yes"/>
      <point x="522" y="492"/>
      <point x="591" y="421"/>
      <point x="591" y="320" type="curve" smooth="yes"/>
      <point x="591" y="185"/>
      <point x="480" y="55"/>
      <point x="341" y="55" type="curve" smooth="yes"/>
      <point x="235" y="55"/>
      <point x="164" y="129"/>
    </contour>
    <contour>
      <point x="666" y="315" type="line"/>
      <point x="713" y="425"/>
      <point x="804" y="492"/>
      <point x="906" y="492" type="curve" smooth="yes"/>
      <point x="1015" y="492"/>
      <point x="1085" y="421"/>
      <point x="1085" y="315" type="curve"/>
    </contour>
  </outline>
</glyph>
<glyph name="florin" format="2">
  <advance width="554"/>
  <unicode hex="0192"/>
  <outline>
    <contour>
      <point x="248" y="92" type="line" smooth="yes"/>
      <point x="195" y="-48"/>
      <point x="156" y="-86"/>
      <point x="62" y="-86" type="curve" smooth="yes"/>
      <point x="48" y="-86"/>
      <point x="35" y="-85"/>
      <point x="15" y="-82" type="curve"/>
      <point x="-9" y="-146" type="line"/>
      <point x="8" y="-151"/>
      <point x="23" y="-153"/>
      <point x="48" y="-153" type="curve" smooth="yes"/>
      <point x="211" y="-153"/>
      <point x="265" y="-50"/>
      <point x="316" y="86" type="curve" smooth="yes"/>
      <point x="476" y="517" type="line"/>
      <point x="588" y="517" type="line"/>
      <point x="612" y="584" type="line"/>
      <point x="500" y="584" type="line"/>
      <point x="509" y="607" type="line" smooth="yes"/>
      <point x="546" y="703"/>
      <point x="593" y="751"/>
      <point x="653" y="751" type="curve" smooth="yes"/>
      <point x="659" y="751"/>
      <point x="667" y="750"/>
      <point x="674" y="749" type="curve"/>
      <point x="697" y="815" type="line"/>
      <point x="688" y="817"/>
      <point x="677" y="818"/>
      <point x="669" y="818" type="curve" smooth="yes"/>
      <point x="550" y="818"/>
      <point x="477" y="705"/>
      <point x="439" y="607" type="curve" smooth="yes"/>
      <point x="430" y="584" type="line"/>
      <point x="319" y="584" type="line"/>
      <point x="294" y="517" type="line"/>
      <point x="407" y="517" type="line"/>
    </contour>
  </outline>
</glyph>
<glyph name="tilde" format="2">
  <advance width="439"/>
  <unicode hex="02DC"/>
  <outline>
    <contour>
      <point x="225" y="633" type="line"/>
      <point x="245" y="651"/>
      <point x="264" y="665"/>
      <point x="291" y="665" type="curve" smooth="yes"/>
      <point x="302" y="665"/>
      <point x="328" y="655"/>
      <point x="350" y="645" type="curve" smooth="yes"/>
      <point x="371" y="636"/>
      <point x="381" y="633"/>
      <point x="395" y="633" type="curve" smooth="yes"/>
      <point x="424" y="633"/>
      <point x="470" y="656"/>
      <point x="491" y="682" type="curve"/>
      <point x="467" y="728" type="line"/>
      <point x="442" y="706"/>
      <point x="423" y="697"/>
      <point x="408" y="697" type="curve" smooth="yes"/>
      <point x="395" y="697"/>
      <point x="375" y="703"/>
      <point x="359" y="711" type="curve"/>
      <point x="331" y="724"/>
      <point x="321" y="728"/>
      <point x="300" y="728" type="curve" smooth="yes"/>
      <point x="267" y="728"/>
      <point x="230" y="710"/>
      <point x="201" y="679" type="curve"/>
    </contour>
  </outline>
</glyph>
<glyph name="brevecomb" format="2">
  <unicode hex="0306"/>
  <outline>
    <contour>
      <point x="-341" y="743" type="line"/>
      <point x="-341" y="672"/>
      <point x="-288" y="623"/>
      <point x="-212" y="623" type="curve" smooth="yes"/>
      <point x="-124" y="623"/>
      <point x="-67" y="659"/>
      <point x="-37" y="743" type="curve"/>
      <point x="-101" y="743" type="line"/>
      <point x="-117" y="698"/>
      <point x="-154" y="681"/>
      <point x="-201" y="681" type="curve" smooth="yes"/>
      <point x="-247" y="681"/>
      <point x="-277" y="706"/>
      <point x="-277" y="743" type="curve"/>
    </contour>
  </outline>
</glyph>
<glyph name="Ushortcyr" format="2">
  <advance width="564"/>
  <unicode hex="040E"/>
  <outline>
    <contour>
      <point x="288" y="931" type="line"/>
      <point x="288" y="836"/>
      <point x="342" y="796"/>
      <point x="430" y="796" type="curve" smooth="yes"/>
      <point x="518" y="796"/>
      <point x="588" y="836"/>
      <point x="622" y="931" type="curve"/>
      <point x="547" y="931" type="line"/>
      <point x="535" y="868"/>
      <point x="496" y="842"/>
      <point x="438" y="842" type="curve" smooth="yes"/>
      <point x="388" y="842"/>
      <point x="360" y="861"/>
      <point x="360" y="906" type="curve" smooth="yes"/>
      <point x="360" y="914"/>
      <point x="361" y="922"/>
      <point x="363" y="931" type="curve"/>
    </contour>
    <contour>
      <point x="159" y="0" type="line"/>
      <point x="237" y="0" type="line"/>
      <point x="691" y="739" type="line"/>
      <point x="613" y="739" type="line"/>
      <point x="335" y="287" type="line"/>
      <point x="225" y="739" type="line"/>
      <point x="147" y="739" type="line"/>
      <point x="279" y="196" type="line"/>
    </contour>
  </outline>
</glyph>
<glyph name="Efcyr" format="2">
  <advance width="812"/>
  <unicode hex="0424"/>
  <outline>
    <contour>
      <point x="369" y="0" type="line"/>
      <point x="443" y="0" type="line"/>
      <point x="453" y="54" type="line"/>
      <point x="655" y="69"/>
      <point x="851" y="217"/>
      <point x="851" y="431" type="curve" smooth="yes"/>
      <point x="851" y="570"/>
      <point x="749" y="685"/>
      <point x="573" y="699" type="curve"/>
      <point x="580" y="739" type="line"/>
      <point x="506" y="739" type="line"/>
      <point x="499" y="699" type="line"/>
      <point x="299" y="683"/>
      <point x="100" y="528"/>
      <point x="100" y="316" type="curve" smooth="yes"/>
      <point x="100" y="173"/>
      <point x="202" y="67"/>
      <point x="379" y="54" type="curve"/>
    </contour>
    <contour>
      <point x="392" y="122" type="line"/>
      <point x="253" y="135"/>
      <point x="176" y="219"/>
      <point x="176" y="329" type="curve" smooth="yes"/>
      <point x="176" y="495"/>
      <point x="330" y="617"/>
      <point x="486" y="631" type="curve"/>
    </contour>
    <contour>
      <point x="560" y="631" type="line"/>
      <point x="698" y="618"/>
      <point x="775" y="528"/>
      <point x="775" y="420" type="curve" smooth="yes"/>
      <point x="775" y="252"/>
      <point x="624" y="136"/>
      <point x="466" y="122" type="curve"/>
    </contour>
  </outline>
</glyph>
<glyph name="Hardcyr" format="2">
  <advance width="757"/>
  <unicode hex="042A"/>
  <outline>
    <contour>
      <point x="329" y="67" type="line"/>
      <point x="383" y="358" type="line"/>
      <point x="520" y="358" type="line" smooth="yes"/>
      <point x="588" y="358"/>
      <point x="630" y="351"/>
      <point x="658" y="334" type="curve"/>
      <point x="686" y="318"/>
      <point x="700" y="288"/>
      <point x="700" y="249" type="curve" smooth="yes"/>
      <point x="700" y="238"/>
      <point x="699" y="227"/>
      <point x="697" y="215" type="curve" smooth="yes"/>
      <point x="684" y="147"/>
      <point x="645" y="98"/>
      <point x="589" y="82" type="curve" smooth="yes"/>
      <point x="554" y="72"/>
      <point x="507" y="67"/>
      <point x="434" y="67" type="curve" smooth="yes"/>
    </contour>
    <contour>
      <point x="243" y="0" type="line"/>
      <point x="447" y="0" type="line" smooth="yes"/>
      <point x="542" y="0"/>
      <point x="600" y="11"/>
      <point x="651" y="38" type="curve" smooth="yes"/>
      <point x="713" y="70"/>
      <point x="757" y="134"/>
      <point x="772" y="216" type="curve" smooth="yes"/>
      <point x="775" y="233"/>
      <point x="777" y="249"/>
      <point x="777" y="264" type="curve" smooth="yes"/>
      <point x="777" y="314"/>
      <point x="761" y="355"/>
      <point x="729" y="381" type="curve" smooth="yes"/>
      <point x="690" y="413"/>
      <point x="638" y="425"/>
      <point x="538" y="425" type="curve" smooth="yes"/>
      <point x="396" y="425" type="line"/>
      <point x="454" y="739" type="line"/>
      <point x="144" y="739" type="line"/>
      <point x="132" y="672" type="line"/>
      <point x="368" y="672" type="line"/>
    </contour>
  </outline>
</glyph>
<glyph name="Softcyr" format="2">
  <advance width="590"/>
  <unicode hex="042C"/>
  <outline>
    <contour>
      <point x="76" y="0" type="line"/>
      <point x="280" y="0" type="line" smooth="yes"/>
      <point x="494" y="0"/>
      <point x="610" y="93"/>
      <point x="610" y="264" type="curve" smooth="yes"/>
      <point x="610" y="376"/>
      <point x="537" y="425"/>
      <point x="371" y="425" type="curve" smooth="yes"/>
      <point x="229" y="425" type="line"/>
      <point x="287" y="739" type="line"/>
      <point x="213" y="739" type="line"/>
    </contour>
    <contour>
      <point x="162" y="67" type="line"/>
      <point x="216" y="358" type="line"/>
      <point x="353" y="358" type="line" smooth="yes"/>
      <point x="480" y="358"/>
      <point x="533" y="326"/>
      <point x="533" y="249" type="curve" smooth="yes"/>
      <point x="533" y="121"/>
      <point x="455" y="67"/>
      <point x="267" y="67" type="curve" smooth="yes"/>
    </contour>
  </outline>
</glyph>
<glyph name="becyr" format="2">
  <advance width="668"/>
  <unicode hex="0431"/>
  <outline>
    <contour>
      <point x="101" y="216" type="curve" smooth="yes"/>
      <point x="101" y="72"/>
      <point x="194" y="-13"/>
      <point x="335" y="-13" type="curve" smooth="yes"/>
      <point x="520" y="-13"/>
      <point x="682" y="144"/>
      <point x="682" y="329" type="curve" smooth="yes"/>
      <point x="682" y="463"/>
      <point x="585" y="560"/>
      <point x="442" y="560" type="curve" smooth="yes"/>
      <point x="311" y="560"/>
      <point x="228" y="491"/>
      <point x="184" y="417" type="curve"/>
      <point x="181" y="418" type="line"/>
      <point x="215" y="583"/>
      <point x="320" y="683"/>
      <point x="491" y="699" type="curve" smooth="yes"/>
      <point x="721" y="720" type="line"/>
      <point x="734" y="788" type="line"/>
      <point x="497" y="768" type="line" smooth="yes"/>
      <point x="285" y="749"/>
      <point x="167" y="638"/>
      <point x="126" y="415" type="curve" smooth="yes"/>
      <point x="111" y="334"/>
      <point x="101" y="269"/>
    </contour>
    <contour>
      <point x="170" y="229" type="curve" smooth="yes"/>
      <point x="170" y="368"/>
      <point x="285" y="492"/>
      <point x="427" y="492" type="curve" smooth="yes"/>
      <point x="535" y="492"/>
      <point x="606" y="420"/>
      <point x="606" y="319" type="curve" smooth="yes"/>
      <point x="606" y="179"/>
      <point x="486" y="55"/>
      <point x="345" y="55" type="curve" smooth="yes"/>
      <point x="236" y="55"/>
      <point x="170" y="128"/>
    </contour>
  </outline>
</glyph>
<glyph name="vecyr" format="2">
  <advance width="535"/>
  <unicode hex="0432"/>
  <outline>
    <contour>
      <point x="63" y="0" type="line"/>
      <point x="297" y="0" type="line" smooth="yes"/>
      <point x="405" y="0"/>
      <point x="532" y="69"/>
      <point x="532" y="190" type="curve" smooth="yes"/>
      <point x="532" y="236"/>
      <point x="507" y="272"/>
      <point x="451" y="294" type="curve"/>
      <point x="508" y="317"/>
      <point x="548" y="370"/>
      <point x="548" y="431" type="curve" smooth="yes"/>
      <point x="548" y="505"/>
      <point x="486" y="547"/>
      <point x="383" y="547" type="curve" smooth="yes"/>
      <point x="164" y="547" type="line"/>
    </contour>
    <contour>
      <point x="149" y="67" type="line"/>
      <point x="184" y="254" type="line"/>
      <point x="325" y="254" type="line" smooth="yes"/>
      <point x="399" y="254"/>
      <point x="456" y="237"/>
      <point x="456" y="181" type="curve" smooth="yes"/>
      <point x="456" y="92"/>
      <point x="363" y="67"/>
      <point x="290" y="67" type="curve" smooth="yes"/>
    </contour>
    <contour>
      <point x="196" y="321" type="line"/>
      <point x="226" y="480" type="line"/>
      <point x="359" y="480" type="line" smooth="yes"/>
      <point x="428" y="480"/>
      <point x="476" y="463"/>
      <point x="476" y="417" type="curve" smooth="yes"/>
      <point x="476" y="341"/>
      <point x="390" y="321"/>
      <point x="329" y="321" type="curve" smooth="yes"/>
    </contour>
  </outline>
</glyph>
<glyph name="checyr" format="2">
  <advance width="523"/>
  <unicode hex="0447"/>
  <outline>
    <contour>
      <point x="386" y="0" type="line"/>
      <point x="460" y="0" type="line"/>
      <point x="561" y="547" type="line"/>
      <point x="487" y="547" type="line"/>
      <point x="439" y="284" type="line"/>
      <point x="394" y="278"/>
      <point x="365" y="275"/>
      <point x="324" y="275" type="curve" smooth="yes"/>
      <point x="222" y="275"/>
      <point x="186" y="291"/>
      <point x="186" y="345" type="curve" smooth="yes"/>
      <point x="186" y="356"/>
      <point x="187" y="367"/>
      <point x="190" y="381" type="curve"/>
      <point x="220" y="547" type="line"/>
      <point x="146" y="547" type="line"/>
      <point x="116" y="381" type="line" smooth="yes"/>
      <point x="113" y="365"/>
      <point x="111" y="350"/>
      <point x="111" y="336" type="curve" smooth="yes"/>
      <point x="111" y="250"/>
      <point x="171" y="208"/>
      <point x="253" y="208" type="curve" smooth="yes"/>
      <point x="318" y="208"/>
      <point x="375" y="212"/>
      <point x="426" y="218" type="curve"/>
    </contour>
  </outline>
</glyph>
<glyph name="tshecyr" format="2">
  <advance width="662"/>
  <unicode hex="045B"/>
  <outline>
    <contour>
      <point x="135" y="0" type="line"/>
      <point x="209" y="0" type="line"/>
      <point x="250" y="220" type="line" smooth="yes"/>
      <point x="269" y="320"/>
      <point x="328" y="412"/>
      <point x="442" y="412" type="curve" smooth="yes"/>
      <point x="524" y="412"/>
      <point x="571" y="356"/>
      <point x="571" y="278" type="curve" smooth="yes"/>
      <point x="571" y="259"/>
      <point x="570" y="238"/>
      <point x="565" y="214" type="curve" smooth="yes"/>
      <point x="525" y="0" type="line"/>
      <point x="599" y="0" type="line"/>
      <point x="639" y="214" type="line" smooth="yes"/>
      <point x="645" y="246"/>
      <point x="647" y="273"/>
      <point x="647" y="298" type="curve" smooth="yes"/>
      <point x="647" y="412"/>
      <point x="578" y="480"/>
      <point x="461" y="480" type="curve" smooth="yes"/>
      <point x="387" y="480"/>
      <point x="329" y="450"/>
      <point x="282" y="396" type="curve"/>
      <point x="315" y="574" type="line"/>
      <point x="502" y="574" type="line"/>
      <point x="515" y="641" type="line"/>
      <point x="328" y="641" type="line"/>
      <point x="346" y="739" type="line"/>
      <point x="272" y="739" type="line"/>
      <point x="254" y="641" type="line"/>
      <point x="131" y="641" type="line"/>
      <point x="118" y="574" type="line"/>
      <point x="241" y="574" type="line"/>
    </contour>
  </outline>
</glyph>
<glyph name="Ksicyr" format="2">
  <advance width="518"/>
  <unicode hex="046E"/>
  <outline>
    <contour>
      <point x="182" y="57" type="line" smooth="yes"/>
      <point x="115" y="57"/>
      <point x="58" y="-10"/>
      <point x="58" y="-75" type="curve" smooth="yes"/>
      <point x="58" y="-105"/>
      <point x="69" y="-136"/>
      <point x="94" y="-169" type="curve"/>
      <point x="173" y="-169" type="line"/>
      <point x="140" y="-136"/>
      <point x="128" y="-105"/>
      <point x="128" y="-78" type="curve" smooth="yes"/>
      <point x="128" y="-47"/>
      <point x="143" y="-13"/>
      <point x="179" y="-13" type="curve" smooth="yes"/>
      <point x="249" y="-13" type="line" smooth="yes"/>
      <point x="385" y="-13"/>
      <point x="526" y="106"/>
      <point x="526" y="247" type="curve" smooth="yes"/>
      <point x="526" y="336"/>
      <point x="460" y="394"/>
      <point x="403" y="406" type="curve"/>
      <point x="488" y="425"/>
      <point x="557" y="504"/>
      <point x="557" y="592" type="curve" smooth="yes"/>
      <point x="557" y="671"/>
      <point x="504" y="734"/>
      <point x="424" y="749" type="curve"/>
      <point x="591" y="878" type="line"/>
      <point x="500" y="878" type="line"/>
      <point x="398" y="804" type="line"/>
      <point x="326" y="878" type="line"/>
      <point x="237" y="878" type="line"/>
      <point x="350" y="752" type="line"/>
      <point x="231" y="752" type="line"/>
      <point x="219" y="683" type="line"/>
      <point x="376" y="683" type="line" smooth="yes"/>
      <point x="437" y="683"/>
      <point x="478" y="638"/>
      <point x="478" y="579" type="curve" smooth="yes"/>
      <point x="478" y="503"/>
      <point x="407" y="434"/>
      <point x="331" y="434" type="curve" smooth="yes"/>
      <point x="248" y="434" type="line"/>
      <point x="236" y="367" type="line"/>
      <point x="324" y="367" type="line" smooth="yes"/>
      <point x="377" y="367"/>
      <point x="447" y="328"/>
      <point x="447" y="244" type="curve" smooth="yes"/>
      <point x="447" y="146"/>
      <point x="361" y="57"/>
      <point x="262" y="57" type="curve" smooth="yes"/>
    </contour>
  </outline>
</glyph>
<glyph name="Fitacyr" format="2">
  <advance width="869"/>
  <unicode hex="0472"/>
  <outline>
    <contour>
      <point x="106" y="302" type="curve" smooth="yes"/>
      <point x="106" y="124"/>
      <point x="242" y="-13"/>
      <point x="433" y="-13" type="curve" smooth="yes"/>
      <point x="668" y="-13"/>
      <point x="900" y="198"/>
      <point x="900" y="437" type="curve" smooth="yes"/>
      <point x="900" y="614"/>
      <point x="765" y="752"/>
      <point x="579" y="752" type="curve" smooth="yes"/>
      <point x="341" y="752"/>
      <point x="106" y="546"/>
    </contour>
    <contour>
      <point x="184" y="347" type="curve"/>
      <point x="813" y="347" type="line"/>
      <point x="772" y="186"/>
      <point x="610" y="55"/>
      <point x="445" y="55" type="curve" smooth="yes"/>
      <point x="275" y="55"/>
      <point x="184" y="156"/>
    </contour>
    <contour>
      <point x="199" y="414" type="line"/>
      <point x="250" y="564"/>
      <point x="404" y="684"/>
      <point x="558" y="684" type="curve" smooth="yes"/>
      <point x="719" y="684"/>
      <point x="824" y="573"/>
      <point x="824" y="414" type="curve"/>
    </contour>
  </outline>
</glyph>
<glyph name="fitacyr" format="2">
  <advance width="655"/>
  <unicode hex="0473"/>
  <outline>
    <contour>
      <point x="87" y="217" type="curve" smooth="yes"/>
      <point x="87" y="82"/>
      <point x="184" y="-13"/>
      <point x="332" y="-13" type="curve" smooth="yes"/>
      <point x="518" y="-13"/>
      <point x="669" y="149"/>
      <point x="669" y="331" type="curve" smooth="yes"/>
      <point x="669" y="465"/>
      <point x="577" y="560"/>
      <point x="436" y="560" type="curve" smooth="yes"/>
      <point x="249" y="560"/>
      <point x="87" y="404"/>
    </contour>
    <contour>
      <point x="178" y="312" type="line"/>
      <point x="214" y="417"/>
      <point x="310" y="492"/>
      <point x="417" y="492" type="curve" smooth="yes"/>
      <point x="525" y="492"/>
      <point x="593" y="416"/>
      <point x="593" y="312" type="curve"/>
    </contour>
    <contour>
      <point x="163" y="245" type="curve"/>
      <point x="582" y="245" type="line"/>
      <point x="551" y="133"/>
      <point x="454" y="55"/>
      <point x="342" y="55" type="curve" smooth="yes"/>
      <point x="223" y="55"/>
      <point x="163" y="131"/>
    </contour>
  </outline>
</glyph>
<glyph name="Izhitsacyr" format="2">
  <advance width="759"/>
  <unicode hex="0474"/>
  <outline>
    <contour>
      <point x="334" y="0" type="line"/>
      <point x="406" y="0" type="line"/>
      <point x="774" y="614" type="line" smooth="yes"/>
      <point x="791" y="641"/>
      <point x="810" y="672"/>
      <point x="839" y="672" type="curve" smooth="yes"/>
      <point x="854" y="672" type="line"/>
      <point x="866" y="739" type="line"/>
      <point x="827" y="739" type="line" smooth="yes"/>
      <point x="767" y="739"/>
      <point x="736" y="683"/>
      <point x="709" y="638" type="curve" smooth="yes"/>
      <point x="388" y="92" type="line"/>
      <point x="248" y="739" type="line"/>
      <point x="167" y="739" type="line"/>
    </contour>
  </outline>
</glyph>
<glyph name="izhitsacyr" format="2">
  <advance width="604"/>
  <unicode hex="0475"/>
  <outline>
    <contour>
      <point x="260" y="0" type="line"/>
      <point x="338" y="0" type="line"/>
      <point x="595" y="424" type="line" smooth="yes"/>
      <point x="610" y="449"/>
      <point x="632" y="480"/>
      <point x="653" y="480" type="curve" smooth="yes"/>
      <point x="663" y="480" type="line"/>
      <point x="675" y="547" type="line"/>
      <point x="661" y="547" type="line" smooth="yes"/>
      <point x="598" y="547"/>
      <point x="572" y="511"/>
      <point x="531" y="444" type="curve" smooth="yes"/>
      <point x="313" y="87" type="line"/>
      <point x="206" y="547" type="line"/>
      <point x="131" y="547" type="line"/>
    </contour>
  </outline>
</glyph>
<glyph name="izhitsagravedblcyr" format="2">
  <advance width="705"/>
  <unicode hex="0477"/>
  <outline>
    <contour>
      <point x="541" y="728" type="line"/>
      <point x="698" y="620" type="line"/>
      <point x="752" y="676" type="line"/>
      <point x="595" y="786" type="line"/>
    </contour>
    <contour>
      <point x="330" y="728" type="line"/>
      <point x="487" y="620" type="line"/>
      <point x="541" y="676" type="line"/>
      <point x="384" y="786" type="line"/>
    </contour>
    <contour>
      <point x="289" y="0" type="line"/>
      <point x="367" y="0" type="line"/>
      <point x="703" y="424" type="line" smooth="yes"/>
      <point x="723" y="449"/>
      <point x="751" y="480"/>
      <point x="772" y="480" type="curve" smooth="yes"/>
      <point x="782" y="480" type="line"/>
      <point x="806" y="547" type="line"/>
      <point x="792" y="547" type="line" smooth="yes"/>
      <point x="729" y="547"/>
      <point x="696" y="511"/>
      <point x="643" y="444" type="curve" smooth="yes"/>
      <point x="359" y="87" type="line"/>
      <point x="337" y="547" type="line"/>
      <point x="262" y="547" type="line"/>
    </contour>
  </outline>
</glyph>
<glyph name="Omegaroundcyr" format="2">
  <advance width="869"/>
  <unicode hex="047A"/>
  <outline>
    <contour>
      <point x="106" y="302" type="curve" smooth="yes"/>
      <point x="106" y="152"/>
      <point x="203" y="31"/>
      <point x="347" y="-3" type="curve"/>
      <point x="355" y="-38"/>
      <point x="384" y="-63"/>
      <point x="423" y="-63" type="curve" smooth="yes"/>
      <point x="462" y="-63"/>
      <point x="501" y="-39"/>
      <point x="520" y="-3" type="curve"/>
      <point x="719" y="39"/>
      <point x="900" y="227"/>
      <point x="900" y="436" type="curve" smooth="yes"/>
      <point x="900" y="588"/>
      <point x="801" y="712"/>
      <point x="656" y="744" type="curve"/>
      <point x="650" y="781"/>
      <point x="620" y="806"/>
      <point x="580" y="806" type="curve" smooth="yes"/>
      <point x="539" y="806"/>
      <point x="498" y="778"/>
      <point x="479" y="740" type="curve"/>
      <point x="281" y="695"/>
      <point x="106" y="511"/>
    </contour>
    <contour>
      <point x="182" y="313" type="curve" smooth="yes"/>
      <point x="182" y="477"/>
      <point x="316" y="627"/>
      <point x="469" y="671" type="curve"/>
      <point x="478" y="638"/>
      <point x="507" y="614"/>
      <point x="545" y="614" type="curve" smooth="yes"/>
      <point x="584" y="614"/>
      <point x="621" y="638"/>
      <point x="642" y="673" type="curve"/>
      <point x="752" y="641"/>
      <point x="824" y="546"/>
      <point x="824" y="426" type="curve" smooth="yes"/>
      <point x="824" y="260"/>
      <point x="690" y="111"/>
      <point x="534" y="67" type="curve"/>
      <point x="528" y="104"/>
      <point x="499" y="129"/>
      <point x="459" y="129" type="curve" smooth="yes"/>
      <point x="419" y="129"/>
      <point x="380" y="103"/>
      <point x="359" y="67" type="curve"/>
      <point x="252" y="101"/>
      <point x="182" y="196"/>
    </contour>
  </outline>
</glyph>
<glyph name="titlocombcyr" format="2">
  <unicode hex="0483"/>
  <outline>
    <contour>
      <point x="-517" y="765" type="line"/>
      <point x="-445" y="765" type="line"/>
      <point x="-433" y="830" type="line"/>
      <point x="54" y="830" type="line"/>
      <point x="79" y="968" type="line"/>
      <point x="7" y="968" type="line"/>
      <point x="-5" y="903" type="line"/>
      <point x="-492" y="903" type="line"/>
    </contour>
  </outline>
</glyph>
<glyph name="dasiacombcyr" format="2">
  <unicode hex="0485"/>
  <outline>
    <contour>
      <point x="20" y="613" type="line"/>
      <point x="-5" y="641"/>
      <point x="-28" y="676"/>
      <point x="-28" y="708" type="curve" smooth="yes"/>
      <point x="-28" y="711"/>
      <point x="-28" y="715"/>
      <point x="-27" y="719" type="curve"/>
      <point x="-13" y="719" type="line" smooth="yes"/>
      <point x="8" y="719"/>
      <point x="23" y="749"/>
      <point x="23" y="768" type="curve" smooth="yes"/>
      <point x="23" y="791"/>
      <point x="7" y="806"/>
      <point x="-21" y="806" type="curve" smooth="yes"/>
      <point x="-29" y="806" type="line" smooth="yes"/>
      <point x="-78" y="806"/>
      <point x="-93" y="764"/>
      <point x="-93" y="723" type="curve" smooth="yes"/>
      <point x="-93" y="677"/>
      <point x="-65" y="635"/>
      <point x="-44" y="613" type="curve"/>
    </contour>
  </outline>
</glyph>
<glyph name="quotereversed" format="2">
  <advance width="252"/>
  <unicode hex="201B"/>
  <outline>
    <contour>
      <point x="290" y="614" type="line"/>
      <point x="252" y="614" type="line"/>
      <point x="244" y="572"/>
      <point x="255" y="547"/>
      <point x="277" y="531" type="curve"/>
      <point x="268" y="487" type="line"/>
      <point x="221" y="506"/>
      <point x="185" y="548"/>
      <point x="201" y="630" type="curve" smooth="yes"/>
      <point x="222" y="740" type="line"/>
      <point x="314" y="740" type="line"/>
    </contour>
  </outline>
  <guideline angle="79.1699" x="254" y="625"/>
  <guideline angle="79.1699" x="200" y="625"/>
</glyph>
<glyph name="guilsinglleft" format="2">
  <advance width="251"/>
  <unicode hex="2039"/>
  <outline>
    <contour>
      <point x="170" y="99" type="line"/>
      <point x="235" y="132" type="line"/>
      <point x="174" y="300" type="line"/>
      <point x="298" y="467" type="line"/>
      <point x="244" y="499" type="line"/>
      <point x="96" y="302" type="line"/>
      <point x="96" y="298" type="line"/>
    </contour>
  </outline>
  <guideline angle="0" x="0" y="302"/>
  <guideline angle="90" x="96" y="0"/>
</glyph>
<glyph name="guilsinglright" format="2">
  <advance width="251"/>
  <unicode hex="203A"/>
  <outline>
    <contour>
      <point x="64" y="132" type="line"/>
      <point x="117" y="99" type="line"/>
      <point x="266" y="298" type="line"/>
      <point x="266" y="302" type="line"/>
      <point x="191" y="499" type="line"/>
      <point x="127" y="467" type="line"/>
      <point x="189" y="300" type="line"/>
    </contour>
  </outline>
  <guideline angle="90" x="266" y="0"/>
  <guideline angle="0" x="0" y="302"/>
</glyph>
<glyph name="Euro" format="2">
  <advance width="870"/>
  <unicode hex="20AC"/>
  <outline>
    <contour>
      <point x="95" y="263" type="line"/>
      <point x="221" y="263" type="line"/>
      <point x="236" y="100"/>
      <point x="361" y="-13"/>
      <point x="545" y="-13" type="curve" smooth="yes"/>
      <point x="638" y="-13"/>
      <point x="721" y="14"/>
      <point x="795" y="67" type="curve"/>
      <point x="814" y="169" type="line"/>
      <point x="748" y="105"/>
      <point x="657" y="55"/>
      <point x="556" y="55" type="curve" smooth="yes"/>
      <point x="421" y="55"/>
      <point x="323" y="142"/>
      <point x="301" y="263" type="curve"/>
      <point x="718" y="263" type="line"/>
      <point x="760" y="330" type="line"/>
      <point x="297" y="330" type="line"/>
      <point x="299" y="353"/>
      <point x="302" y="375"/>
      <point x="309" y="397" type="curve"/>
      <point x="802" y="397" type="line"/>
      <point x="844" y="464" type="line"/>
      <point x="333" y="464" type="line"/>
      <point x="395" y="594"/>
      <point x="528" y="684"/>
      <point x="672" y="684" type="curve" smooth="yes"/>
      <point x="776" y="684"/>
      <point x="854" y="646"/>
      <point x="898" y="551" type="curve"/>
      <point x="946" y="628" type="line"/>
      <point x="892" y="706"/>
      <point x="798" y="752"/>
      <point x="681" y="752" type="curve" smooth="yes"/>
      <point x="494" y="752"/>
      <point x="328" y="634"/>
      <point x="256" y="464" type="curve"/>
      <point x="162" y="464" type="line"/>
      <point x="120" y="397" type="line"/>
      <point x="234" y="397" type="line"/>
      <point x="227" y="375"/>
      <point x="222" y="353"/>
      <point x="222" y="330" type="curve"/>
      <point x="137" y="330" type="line"/>
    </contour>
  </outline>
</glyph>
<glyph name="j.dotless" format="2">
  <advance width="203"/>
  <unicode hex="E091"/>
  <outline>
    <contour>
      <point x="-81" y="-192" type="line"/>
      <point x="-35" y="-190"/>
      <point x="0" y="-180"/>
      <point x="36" y="-158" type="curve" smooth="yes"/>
      <point x="100" y="-118"/>
      <point x="127" y="-72"/>
      <point x="147" y="38" type="curve" smooth="yes"/>
      <point x="241" y="547" type="line"/>
      <point x="167" y="547" type="line"/>
      <point x="73" y="38" type="line" smooth="yes"/>
      <point x="52" y="-76"/>
      <point x="17" y="-116"/>
      <point x="-67" y="-121" type="curve"/>
    </contour>
  </outline>
</glyph>
<glyph name="zecyr.loclBGR" format="2">
  <advance width="570"/>
  <outline>
    <contour>
      <point x="33" y="-17" type="line"/>
      <point x="33" y="-125"/>
      <point x="122" y="-192"/>
      <point x="246" y="-192" type="curve" smooth="yes"/>
      <point x="408" y="-192"/>
      <point x="543" y="-96"/>
      <point x="543" y="73" type="curve" smooth="yes"/>
      <point x="543" y="137"/>
      <point x="517" y="200"/>
      <point x="428" y="222" type="curve"/>
      <point x="510" y="246"/>
      <point x="560" y="325"/>
      <point x="560" y="408" type="curve" smooth="yes"/>
      <point x="560" y="492"/>
      <point x="494" y="560"/>
      <point x="367" y="560" type="curve" smooth="yes"/>
      <point x="293" y="560"/>
      <point x="181" y="533"/>
      <point x="121" y="412" type="curve"/>
      <point x="199" y="412" type="line"/>
      <point x="235" y="467"/>
      <point x="288" y="493"/>
      <point x="354" y="493" type="curve" smooth="yes"/>
      <point x="432" y="493"/>
      <point x="484" y="461"/>
      <point x="484" y="399" type="curve" smooth="yes"/>
      <point x="484" y="299"/>
      <point x="410" y="251"/>
      <point x="318" y="251" type="curve" smooth="yes"/>
      <point x="242" y="251" type="line"/>
      <point x="229" y="183" type="line"/>
      <point x="307" y="183" type="line" smooth="yes"/>
      <point x="406" y="183"/>
      <point x="466" y="129"/>
      <point x="466" y="51" type="curve" smooth="yes"/>
      <point x="466" y="-68"/>
      <point x="372" y="-125"/>
      <point x="260" y="-125" type="curve" smooth="yes"/>
      <point x="162" y="-125"/>
      <point x="114" y="-76"/>
      <point x="109" y="-17" type="curve"/>
    </contour>
  </outline>
</glyph>
